<svg xmlns="http://www.w3.org/2000/svg" xmlns:xlink="http://www.w3.org/1999/xlink" width="2424.331" height="1379.841" viewBox="0 0 2424.331 1379.841">
  <defs>
    <clipPath id="clip-path">
      <rect width="365" height="162" fill="none"/>
    </clipPath>
  </defs>
  <g id="Decorations" transform="translate(220.586 468.841)" opacity="0.8">
    <circle id="Ellipse_388" data-name="Ellipse 388" cx="219.5" cy="219.5" r="219.5" transform="translate(1506 472)" fill="#6c63ff" opacity="0.15"/>
    <path id="Rectangle_1" data-name="Rectangle 1" d="M0,0H893a0,0,0,0,1,0,0V864a150,150,0,0,1-150,150H150A150,150,0,0,1,0,864V0A0,0,0,0,1,0,0Z" transform="matrix(0.94, 0.342, -0.342, 0.94, 1364.6, -468.841)" fill="#6c63ff"/>
    <g id="Component_1_1" data-name="Component 1 – 1" transform="translate(1365.73 553.067)">
      <g id="Repeat_Grid_1" data-name="Repeat Grid 1" transform="matrix(0.94, 0.342, -0.342, 0.94, 55.407, 0)" clip-path="url(#clip-path)">
        <g transform="translate(-1162 -828)">
          <circle id="Ellipse_387" data-name="Ellipse 387" cx="6" cy="6" r="6" transform="translate(1169 835)" fill="#f8f5a1"/>
        </g>
        <g transform="translate(-1116 -828)">
          <circle id="Ellipse_387-2" data-name="Ellipse 387" cx="6" cy="6" r="6" transform="translate(1169 835)" fill="#f8f5a1"/>
        </g>
        <g transform="translate(-1070 -828)">
          <circle id="Ellipse_387-3" data-name="Ellipse 387" cx="6" cy="6" r="6" transform="translate(1169 835)" fill="#f8f5a1"/>
        </g>
        <g transform="translate(-1024 -828)">
          <circle id="Ellipse_387-4" data-name="Ellipse 387" cx="6" cy="6" r="6" transform="translate(1169 835)" fill="#f8f5a1"/>
        </g>
        <g transform="translate(-978 -828)">
          <circle id="Ellipse_387-5" data-name="Ellipse 387" cx="6" cy="6" r="6" transform="translate(1169 835)" fill="#f8f5a1"/>
        </g>
        <g transform="translate(-932 -828)">
          <circle id="Ellipse_387-6" data-name="Ellipse 387" cx="6" cy="6" r="6" transform="translate(1169 835)" fill="#f8f5a1"/>
        </g>
        <g transform="translate(-886 -828)">
          <circle id="Ellipse_387-7" data-name="Ellipse 387" cx="6" cy="6" r="6" transform="translate(1169 835)" fill="#f8f5a1"/>
        </g>
        <g transform="translate(-840 -828)">
          <circle id="Ellipse_387-8" data-name="Ellipse 387" cx="6" cy="6" r="6" transform="translate(1169 835)" fill="#f8f5a1"/>
        </g>
        <g transform="translate(-1162 -788)">
          <circle id="Ellipse_387-9" data-name="Ellipse 387" cx="6" cy="6" r="6" transform="translate(1169 835)" fill="#f8f5a1"/>
        </g>
        <g transform="translate(-1116 -788)">
          <circle id="Ellipse_387-10" data-name="Ellipse 387" cx="6" cy="6" r="6" transform="translate(1169 835)" fill="#f8f5a1"/>
        </g>
        <g transform="translate(-1070 -788)">
          <circle id="Ellipse_387-11" data-name="Ellipse 387" cx="6" cy="6" r="6" transform="translate(1169 835)" fill="#f8f5a1"/>
        </g>
        <g transform="translate(-1024 -788)">
          <circle id="Ellipse_387-12" data-name="Ellipse 387" cx="6" cy="6" r="6" transform="translate(1169 835)" fill="#f8f5a1"/>
        </g>
        <g transform="translate(-978 -788)">
          <circle id="Ellipse_387-13" data-name="Ellipse 387" cx="6" cy="6" r="6" transform="translate(1169 835)" fill="#f8f5a1"/>
        </g>
        <g transform="translate(-932 -788)">
          <circle id="Ellipse_387-14" data-name="Ellipse 387" cx="6" cy="6" r="6" transform="translate(1169 835)" fill="#f8f5a1"/>
        </g>
        <g transform="translate(-886 -788)">
          <circle id="Ellipse_387-15" data-name="Ellipse 387" cx="6" cy="6" r="6" transform="translate(1169 835)" fill="#f8f5a1"/>
        </g>
        <g transform="translate(-840 -788)">
          <circle id="Ellipse_387-16" data-name="Ellipse 387" cx="6" cy="6" r="6" transform="translate(1169 835)" fill="#f8f5a1"/>
        </g>
        <g transform="translate(-1162 -748)">
          <circle id="Ellipse_387-17" data-name="Ellipse 387" cx="6" cy="6" r="6" transform="translate(1169 835)" fill="#f8f5a1"/>
        </g>
        <g transform="translate(-1116 -748)">
          <circle id="Ellipse_387-18" data-name="Ellipse 387" cx="6" cy="6" r="6" transform="translate(1169 835)" fill="#f8f5a1"/>
        </g>
        <g transform="translate(-1070 -748)">
          <circle id="Ellipse_387-19" data-name="Ellipse 387" cx="6" cy="6" r="6" transform="translate(1169 835)" fill="#f8f5a1"/>
        </g>
        <g transform="translate(-1024 -748)">
          <circle id="Ellipse_387-20" data-name="Ellipse 387" cx="6" cy="6" r="6" transform="translate(1169 835)" fill="#f8f5a1"/>
        </g>
        <g transform="translate(-978 -748)">
          <circle id="Ellipse_387-21" data-name="Ellipse 387" cx="6" cy="6" r="6" transform="translate(1169 835)" fill="#f8f5a1"/>
        </g>
        <g transform="translate(-932 -748)">
          <circle id="Ellipse_387-22" data-name="Ellipse 387" cx="6" cy="6" r="6" transform="translate(1169 835)" fill="#f8f5a1"/>
        </g>
        <g transform="translate(-886 -748)">
          <circle id="Ellipse_387-23" data-name="Ellipse 387" cx="6" cy="6" r="6" transform="translate(1169 835)" fill="#f8f5a1"/>
        </g>
        <g transform="translate(-840 -748)">
          <circle id="Ellipse_387-24" data-name="Ellipse 387" cx="6" cy="6" r="6" transform="translate(1169 835)" fill="#f8f5a1"/>
        </g>
        <g transform="translate(-1162 -708)">
          <circle id="Ellipse_387-25" data-name="Ellipse 387" cx="6" cy="6" r="6" transform="translate(1169 835)" fill="#f8f5a1"/>
        </g>
        <g transform="translate(-1116 -708)">
          <circle id="Ellipse_387-26" data-name="Ellipse 387" cx="6" cy="6" r="6" transform="translate(1169 835)" fill="#f8f5a1"/>
        </g>
        <g transform="translate(-1070 -708)">
          <circle id="Ellipse_387-27" data-name="Ellipse 387" cx="6" cy="6" r="6" transform="translate(1169 835)" fill="#f8f5a1"/>
        </g>
        <g transform="translate(-1024 -708)">
          <circle id="Ellipse_387-28" data-name="Ellipse 387" cx="6" cy="6" r="6" transform="translate(1169 835)" fill="#f8f5a1"/>
        </g>
        <g transform="translate(-978 -708)">
          <circle id="Ellipse_387-29" data-name="Ellipse 387" cx="6" cy="6" r="6" transform="translate(1169 835)" fill="#f8f5a1"/>
        </g>
        <g transform="translate(-932 -708)">
          <circle id="Ellipse_387-30" data-name="Ellipse 387" cx="6" cy="6" r="6" transform="translate(1169 835)" fill="#f8f5a1"/>
        </g>
        <g transform="translate(-886 -708)">
          <circle id="Ellipse_387-31" data-name="Ellipse 387" cx="6" cy="6" r="6" transform="translate(1169 835)" fill="#f8f5a1"/>
        </g>
        <g transform="translate(-840 -708)">
          <circle id="Ellipse_387-32" data-name="Ellipse 387" cx="6" cy="6" r="6" transform="translate(1169 835)" fill="#f8f5a1"/>
        </g>
        <g transform="translate(-1162 -668)">
          <circle id="Ellipse_387-33" data-name="Ellipse 387" cx="6" cy="6" r="6" transform="translate(1169 835)" fill="#f8f5a1"/>
        </g>
        <g transform="translate(-1116 -668)">
          <circle id="Ellipse_387-34" data-name="Ellipse 387" cx="6" cy="6" r="6" transform="translate(1169 835)" fill="#f8f5a1"/>
        </g>
        <g transform="translate(-1070 -668)">
          <circle id="Ellipse_387-35" data-name="Ellipse 387" cx="6" cy="6" r="6" transform="translate(1169 835)" fill="#f8f5a1"/>
        </g>
        <g transform="translate(-1024 -668)">
          <circle id="Ellipse_387-36" data-name="Ellipse 387" cx="6" cy="6" r="6" transform="translate(1169 835)" fill="#f8f5a1"/>
        </g>
        <g transform="translate(-978 -668)">
          <circle id="Ellipse_387-37" data-name="Ellipse 387" cx="6" cy="6" r="6" transform="translate(1169 835)" fill="#f8f5a1"/>
        </g>
        <g transform="translate(-932 -668)">
          <circle id="Ellipse_387-38" data-name="Ellipse 387" cx="6" cy="6" r="6" transform="translate(1169 835)" fill="#f8f5a1"/>
        </g>
        <g transform="translate(-886 -668)">
          <circle id="Ellipse_387-39" data-name="Ellipse 387" cx="6" cy="6" r="6" transform="translate(1169 835)" fill="#f8f5a1"/>
        </g>
        <g transform="translate(-840 -668)">
          <circle id="Ellipse_387-40" data-name="Ellipse 387" cx="6" cy="6" r="6" transform="translate(1169 835)" fill="#f8f5a1"/>
        </g>
      </g>
    </g>
    <path id="Path_337" data-name="Path 337" d="M-126.9,206.505S-94.6,392.245-21.92,392.245s245.73-20.766,324.179-87.678,86.525-151.13,103.829-186.893,25.381-34.61,72.681-43.839,62.3-8.076,114.212-41.532S736.235-85.948,736.235-85.948L370.325-107.29,83.064-124.6-184.586,101.522Z" transform="translate(-36 60)" fill="#6c63ff" opacity="0.15"/>
    <g id="Dibujo" transform="translate(1479.809 494.603)">
      <path id="Path_340" data-name="Path 340" d="M385.945,446.731,377.98,588.5l7.965.1,6.471-143.861Z" transform="translate(-189.825 -223.343)" fill="#3f3d56"/>
      <rect id="Rectangle_562" data-name="Rectangle 562" width="98.562" height="21.405" transform="translate(68.188 295.215)" fill="#45aff7"/>
      <path id="Path_341" data-name="Path 341" d="M343.035,679.51v13.44H241.223q-5.406-3.893-10.683-8.014V679.51Z" transform="translate(-169.814 -365.384)" fill="#3f3d56"/>
      <path id="Path_342" data-name="Path 342" d="M335.181,560.111c-.279,1.289-.642,2.564-1.025,3.833-1.13,3.669-2.489,7.288-2.753,11.1-.353,5.038,1,10.9-2.489,14.555-.9.946-2.066,1.653-2.867,2.663a4.665,4.665,0,0,0-.339.5,7.716,7.716,0,0,0-.811,3.982,69.7,69.7,0,0,0,.563,8.637c1.18,9.856,3.509,19.732.448,29.036a44.758,44.758,0,0,1-1.936,4.734c-1.493,3.285-3.121,6.526-3.609,10.085a63.532,63.532,0,0,0-.269,8.039q-2.36-.752-4.714-1.533-14.222-4.7-28.125-10.454c.025-.134.05-.274.07-.408.712-4.43-.264-8.96-1.449-13.281-2.489-9.154-6.013-18.219-8.1-27.438a69.434,69.434,0,0,1-1.648-10.951c-.06-.826-.095-1.658-.1-2.489-.025-1.085,0-2.17.045-3.266.1-2.185.2-4.779-1.548-6.108a13.389,13.389,0,0,0-3.35-1.284c-2.16-.841-3.639-2.793-5.351-4.356a7.014,7.014,0,0,0-6.267-1.842c-11.19,2.564-19.414,12.056-29.827,16.855-.4.189-.806.368-1.215.538a17.7,17.7,0,0,0-3.818,1.951,4.351,4.351,0,0,0-1.712,2.414,9.033,9.033,0,0,0,.095,3.246,16.571,16.571,0,0,1-.224,5.292,16.155,16.155,0,0,1-.533,1.991c-.4,1.18-.931,2.335-1.439,3.484q-3.982-2.678-7.85-5.476-5.406-3.893-10.683-8.014l-2.135-1.717a223.148,223.148,0,0,1-25.8-23.69c1.06-2.987,2.593-5.764,3.33-8.826.418-1.757.572-3.584,1.15-5.292a19.026,19.026,0,0,1,2.748-4.928,66.7,66.7,0,0,1,15.3-15.312c6.168-4.42,13.291-7.965,18.841-12.982a29.733,29.733,0,0,0,5.759-6.825,4.266,4.266,0,0,0,.264-.5,10.329,10.329,0,0,0,.891-2.847c.4-2.23.338-4.679.538-6.82a72.744,72.744,0,0,0,20.474.617c7.94-.891,15.705-3.1,23.645-3.952.6-.07,1.2-.124,1.8-.174,2.544-.2,5.092-.249,7.646-.219,2.135,0,4.271.095,6.407.164l23.511.8a23.081,23.081,0,0,1,7.686,1.14,16.8,16.8,0,0,1,7.029,5.854c.234.319.468.637.687.966a30.364,30.364,0,0,1,3.624,7.163c.095.259.184.5.269.782.224.692.418,1.389.592,2.1.134.552.254,1.105.363,1.663a71.4,71.4,0,0,0,1.737,8.238c.06.194.124.388.194.577,1.04,2.917,2.768,5.53,4.072,8.333a30.95,30.95,0,0,1,2.14,6.337A31.315,31.315,0,0,1,335.181,560.111Z" transform="translate(-141.63 -276.575)" fill="#35323e"/>
      <path id="Path_343" data-name="Path 343" d="M289.229,259.361c-2.1-1.673-5.147-.448-7.606.632a48.828,48.828,0,0,1-6.352,2.295,2.683,2.683,0,0,1-1.394.144c-1-.239-1.414-1.419-2.155-2.135-1.289-1.24-3.4-.946-5.062-.274s-3.305,1.643-5.087,1.493c-1.9-.149-3.554-1.553-5.476-1.6-3.385-.08-6.227,4.092-9.428,2.987-1.951-.672-3.485-3.211-5.406-2.489-1.493.567-1.628,2.633-2.529,3.982-1.06,1.573-3.126,2.016-4.893,2.713a14.057,14.057,0,0,0-8.532,14.351c.4,3.28,1.991,6.287,3.041,9.418,3.116,9.1,2.046,19.374,5.973,28.155.5-.468.777-.642,1.259-1.105a11.519,11.519,0,0,0-.672,8.263c.413,1.379,1.085,2.663,1.593,4.012a35.957,35.957,0,0,1,1.274,4.629l4.331,19.105c1.692,7.467,3.39,14.934,3.684,22.58a65.9,65.9,0,0,1-1.135,14.834c7.845-1.3,15.023-4.779,22.973-4.734a64.055,64.055,0,0,1,8.7.9,179.12,179.12,0,0,0,25.452,1.727,10.106,10.106,0,0,0,3.9-.548,29.267,29.267,0,0,0,3.027-1.9,13.388,13.388,0,0,1,6.815-1.493c10.648-.194,20.907,3.7,31.485,5.077a37.908,37.908,0,0,0,1.22-28.434c-.951-2.723-2.23-5.376-2.608-8.238a41.685,41.685,0,0,1-.119-5.291,38.384,38.384,0,0,0-2.4-13.231,13.6,13.6,0,0,1-1.294-5.112,11.616,11.616,0,0,1,1.792-4.978,34.546,34.546,0,0,1,14.71-16.059l7.681-5.157c-1.05-6.636-2.4-13.624-5.217-19.727s-7.019-11.713-12.709-15.282a41.994,41.994,0,0,0-6-2.987,27.9,27.9,0,0,0-9.085-2.489c-3.584-.2-7.113.757-10.653,1.354C311.182,266.623,298.07,266.394,289.229,259.361Z" transform="translate(-167.141 -153.968)" fill="#45aff7"/>
      <path id="Path_344" data-name="Path 344" d="M316.252,489.26l-3.654,4.615-6.889,8.7-7.965,10.05-2.225,2.808H291.2l-106.87.124-66.928.075h-2.987c-.4-1.244-.767-2.489-1.105-3.783q-.747-2.778-1.309-5.625c-.08-.363-.149-.727-.214-1.1l24.282-15.875,9.129-.05h0l27.926-.159h0l15.6-.09h4.634l10.394-.055h0l79.218-.453h0l4.052-.025h1.757l4.654-.025,17.318-.1,3.325-1.264.244.259Z" transform="translate(-110.176 -268.719)" fill="#3f3d56"/>
      <path id="Path_345" data-name="Path 345" d="M313.132,464.93l-.413.5-2.718,3.2-5.6,6.606-11.733,13.834-103.938-2.653-78.377-1.991c-.08-.363-.149-.727-.214-1.1a94.186,94.186,0,0,1-1.568-19.379l8.691-4.45,1.991-1.025,15.5-7.965,13.6-6.969,35.472,4.61,7.855,1.02,3.554.458,5.2.677.438.06,81.573,10.578,9.015,1.17,5.291.687,16.308,2.121Z" transform="translate(-108.55 -246.878)" fill="#504f60"/>
      <path id="Path_346" data-name="Path 346" d="M471.493,534.51l-.085,1.956-.5,11.046-2.678,60.73-.567,13.127-1.493,33.77-.841,19.075-3.036-.951q-2.36-.752-4.714-1.533l7.283-132.412.154-2.778,3.206-1Z" transform="translate(-283.836 -292.564)" fill="#3f3d56"/>
      <path id="Path_347" data-name="Path 347" d="M119.151,534.22l-.224,5.112L118.6,546.8q-1.424-3.539-2.608-7.213l-.075-.244c-.4-1.245-.767-2.489-1.105-3.783Z" transform="translate(-111.693 -292.418)" fill="#3f3d56"/>
      <ellipse id="Ellipse_389" data-name="Ellipse 389" cx="22.898" cy="30.863" rx="22.898" ry="30.863" transform="translate(114.731 104.81)" fill="#a1616a"/>
      <ellipse id="Ellipse_390" data-name="Ellipse 390" cx="22.898" cy="30.863" rx="22.898" ry="30.863" transform="translate(114.731 104.81)" opacity="0.1"/>
      <circle id="Ellipse_391" data-name="Ellipse 391" cx="31.858" cy="31.858" r="31.858" transform="translate(109.006 85.148)" fill="#a1616a"/>
      <path id="Path_348" data-name="Path 348" d="M357.271,184.165a40.786,40.786,0,0,0-5.779.881c-5.038,1.225-9.393,3.942-13.634,6.611a16.226,16.226,0,0,0-5.038,4.211c-2.121,3.161-1.3,7.183-2.489,10.692a30.8,30.8,0,0,1-2.713,5.1c-2.643,4.6-4.027,9.652-5.386,14.655-.279,1.035-.358,2.439.772,2.837a3.111,3.111,0,0,0,1.931-.219c3.569-1.18,8.1-1.518,10.752.876s2.424,6.641,5.575,8.462c3.609,2.106,9.244-.438,12.519,2.046,1.4,1.065,1.911,2.773,3.061,4.057,2.678,2.987,7.83,2.842,12.116,2.24,2.459-.348,5.476-.582,6.969,1.145.717.816.921,1.936,1.752,2.673,1.493,1.334,4.226.657,5.685-.712s2.155-3.221,3.37-4.759c2.365-2.987,6.521-4.615,8.96-7.566,2.041-2.489,2.658-5.605,3.216-8.612l2.076-11.145c.841-4.52,1.608-9.458-.936-13.44-.906-1.434-2.205-2.668-2.987-4.152-.523-1-.816-2.046-1.424-2.987a12.4,12.4,0,0,0-2.554-2.579l-4.913-4.067a41.316,41.316,0,0,0-5.371-3.982C375.789,182.343,365.286,183.418,357.271,184.165Z" transform="translate(-215.774 -116.26)" fill="#464353"/>
      <path id="Path_349" data-name="Path 349" d="M147.142,343.726c-1.18,1.254-2.27,2.608-3.534,3.783a42.814,42.814,0,0,1-3.485,2.788q-2.927,2.19-5.725,4.535a32.063,32.063,0,0,0-5.247,5.242c-2.658,3.569-3.918,8.009-6.407,11.7-2.2,3.271-5.3,5.854-7.537,9.1a14.077,14.077,0,0,0-2.15,4.515,20.977,20.977,0,0,0-.443,4.774,35.453,35.453,0,0,0,.453,7.86,11.92,11.92,0,0,0,3.738,6.79,16.4,16.4,0,0,0,6.675,2.887,6.01,6.01,0,0,0,3.714.1,6.123,6.123,0,0,0,2.16-1.822l6.058-6.969c4.052-4.679,8.263-9.458,13.824-12.2,1.742-.851,3.579-1.493,5.326-2.32,7.407-3.569,12.644-10.877,14.675-18.841.5-1.946.816-3.933,1.14-5.919l.876-5.446a1.737,1.737,0,0,0,0-.831,1.792,1.792,0,0,0-.637-.757,105.588,105.588,0,0,1-11.817-11.15,27.289,27.289,0,0,0-2.678-3.066c-1.254-1-1.16-.921-2.668,0a31.993,31.993,0,0,0-6.312,5.242Z" transform="translate(-110.579 -193.757)" fill="#a1616a"/>
      <path id="Path_350" data-name="Path 350" d="M263.05,421.973a.936.936,0,1,0-1.682.816l-.5.244,14.844,30.425,2.683-1.309L263.553,421.7Z" transform="translate(-185.046 -235.764)" fill="#3f3d56"/>
      <path id="Path_351" data-name="Path 351" d="M147.142,343.726c-1.18,1.254-2.27,2.608-3.534,3.783a42.814,42.814,0,0,1-3.485,2.788q-2.927,2.19-5.725,4.535a32.063,32.063,0,0,0-5.247,5.242c-2.658,3.569-3.918,8.009-6.407,11.7-2.2,3.271-5.3,5.854-7.537,9.1a14.077,14.077,0,0,0-2.15,4.515,20.977,20.977,0,0,0-.443,4.774,35.453,35.453,0,0,0,.453,7.86,11.92,11.92,0,0,0,3.738,6.79,16.4,16.4,0,0,0,6.675,2.887,6.01,6.01,0,0,0,3.714.1,6.123,6.123,0,0,0,2.16-1.822l6.058-6.969c4.052-4.679,8.263-9.458,13.824-12.2,1.742-.851,3.579-1.493,5.326-2.32,7.407-3.569,12.644-10.877,14.675-18.841.5-1.946.816-3.933,1.14-5.919l.876-5.446a1.737,1.737,0,0,0,0-.831,1.792,1.792,0,0,0-.637-.757,105.588,105.588,0,0,1-11.817-11.15,27.289,27.289,0,0,0-2.678-3.066c-1.254-1-1.16-.921-2.668,0a31.993,31.993,0,0,0-6.312,5.242Z" transform="translate(-110.579 -193.757)" opacity="0.04"/>
      <path id="Path_352" data-name="Path 352" d="M489.443,416.65c-.05,3.176-.174,6.446-1.493,9.344a4.977,4.977,0,0,1-2.768,2.9,6.442,6.442,0,0,1-2.434.09,87.944,87.944,0,0,0-29.116,2.31c2.539-5.077,1.08-11.165,1.782-16.8.194-1.538.548-3.051.682-4.595.5-5.476-1.847-10.792-2.922-16.2a36.24,36.24,0,0,1,0-14.177,9.459,9.459,0,0,1,1.22-3.41,8,8,0,0,1,2.8-2.434c4.032-2.295,8.786-2.559,13.316-2.255,3.051.2,9.169-.085,11.713,1.792,2.783,2.056,3.664,8.96,4.415,12.151a102.781,102.781,0,0,1,2.29,14.869A159.776,159.776,0,0,1,489.443,416.65Z" transform="translate(-281.272 -210.61)" fill="#a1616a"/>
      <path id="Path_353" data-name="Path 353" d="M59.98,436.03,77.9,447.977l80.642-2.987-53.263-8.96Z" transform="translate(-30.122 -218.968)" fill="#fff"/>
      <path id="Path_354" data-name="Path 354" d="M195.1,288.848c-2.942,2.593-5.436,5.65-8.223,8.413a113.149,113.149,0,0,1-12.494,10.23,9.3,9.3,0,0,1,6.471,6.521c.189.732.284,1.493.5,2.21a12.076,12.076,0,0,0,2.768,4.48c5.048,5.69,12.111,9.9,15.088,16.925a1.563,1.563,0,0,0,.6.846,1.309,1.309,0,0,0,.772.09c2.693-.284,4.754-2.454,6.471-4.565a47.717,47.717,0,0,0,8.462-14.894,26.548,26.548,0,0,0,.124-16.925,43.323,43.323,0,0,0-3.918-7.631q-1.936-3.221-3.863-6.431c-.672-1.13-1.528-3.425-2.847-3.982C202.157,282.909,196.925,287.021,195.1,288.848Z" transform="translate(-141.61 -166.71)" fill="#45aff7"/>
      <path id="Path_355" data-name="Path 355" d="M476.921,348.3l4.236,9.956a30.778,30.778,0,0,0-27.826,3.858,15.632,15.632,0,0,0-5.72,6.655,2.907,2.907,0,0,1-2.882-1.13,5.779,5.779,0,0,1-1.065-3.047c-.393-3.823,1.055-7.571,2.489-11.145a16.053,16.053,0,0,1,2.539-4.739,14.831,14.831,0,0,1,4.331-3.1,96.438,96.438,0,0,1,15.705-6.939c2.29-.742,4.689-.727,5.973,1.414C476.189,342.63,475.756,345.577,476.921,348.3Z" transform="translate(-276.814 -193.985)" fill="#45aff7"/>
      <path id="Path_356" data-name="Path 356" d="M144.537,415.036c1.06.846,1.991,1.847,3.081,2.653a22.015,22.015,0,0,0,3.664,2.056l4.908,2.359a27.5,27.5,0,0,0,4.754,1.931c2.1.563,4.306.617,6.416,1.14,2.663.657,5.1,2.026,7.721,2.817s5.695.921,7.885-.727c1.369-1.03,2.4-2.733,4.1-2.987a5.428,5.428,0,0,1,3.126.9l12.773,6.715c1.722.906,3.544,1.911,4.445,3.639s.294,4.351-1.6,4.8a17.505,17.505,0,0,1-1.991.115,1.561,1.561,0,0,0-1.464,1.13,2.27,2.27,0,0,0,.314,1.17,4.894,4.894,0,0,1,.075,4.161,2.976,2.976,0,0,1-3.614,1.493c.224,1.926-1.872,3.275-3.738,3.788-4.709,1.289-9.7.5-14.516-.319a19.9,19.9,0,0,1-5.535-1.493c-.826-.4-1.593-.921-2.429-1.294-2.295-1.02-4.9-.886-7.412-.841-11.6.2-23.107-1.946-34.517-4.087a16.7,16.7,0,0,1-6.1-1.991c-3.485-2.27-4.779-6.929-4.206-11.051s2.663-7.855,4.719-11.479l2.663-4.694a6.044,6.044,0,0,1,1.434-1.892C133.412,410.053,141.182,412.338,144.537,415.036Z" transform="translate(-114.575 -230.853)" fill="#a1616a"/>
      <path id="Path_357" data-name="Path 357" d="M144.537,415.036c1.06.846,1.991,1.847,3.081,2.653a22.015,22.015,0,0,0,3.664,2.056l4.908,2.359a27.5,27.5,0,0,0,4.754,1.931c2.1.563,4.306.617,6.416,1.14,2.663.657,5.1,2.026,7.721,2.817s5.695.921,7.885-.727c1.369-1.03,2.4-2.733,4.1-2.987a5.428,5.428,0,0,1,3.126.9l12.773,6.715c1.722.906,3.544,1.911,4.445,3.639s.294,4.351-1.6,4.8a17.505,17.505,0,0,1-1.991.115,1.561,1.561,0,0,0-1.464,1.13,2.27,2.27,0,0,0,.314,1.17,4.894,4.894,0,0,1,.075,4.161,2.976,2.976,0,0,1-3.614,1.493c.224,1.926-1.872,3.275-3.738,3.788-4.709,1.289-9.7.5-14.516-.319a19.9,19.9,0,0,1-5.535-1.493c-.826-.4-1.593-.921-2.429-1.294-2.295-1.02-4.9-.886-7.412-.841-11.6.2-23.107-1.946-34.517-4.087a16.7,16.7,0,0,1-6.1-1.991c-3.485-2.27-4.779-6.929-4.206-11.051s2.663-7.855,4.719-11.479l2.663-4.694a6.044,6.044,0,0,1,1.434-1.892C133.412,410.053,141.182,412.338,144.537,415.036Z" transform="translate(-114.575 -230.853)" opacity="0.04"/>
      <path id="Path_358" data-name="Path 358" d="M372.468,434.021c-2.593,1.225-5.57,1.344-8.278,2.285s-5.008,2.633-7.492,4.012c-6.471,3.614-13.938,4.978-21.271,6.277a62.048,62.048,0,0,1-13.44,1.4c-6.063-.259-11.887-2.28-17.761-3.8s-12.141-2.549-17.96-.836a20.215,20.215,0,0,0-13.191,12.659,29.157,29.157,0,0,0-1.155,11.21c1.225.9,2.937-.348,3.6-1.717s1.03-3.046,2.325-3.843c2.245.762,2.793,3.753,4.644,5.232a8.386,8.386,0,0,0,4.166,1.379l7.566,1.075c1.822.259,3.938.433,5.257-.851.642-.622,1-1.493,1.583-2.16,1.2-1.334,3.216-1.563,5.008-1.384,5.6.558,10.842,4.186,16.4,3.325a31.1,31.1,0,0,0,5.511-1.752c10.8-3.813,22.794-1.493,34.029-3.679a75.95,75.95,0,0,0,12.49-3.858,25.258,25.258,0,0,0,6.347-3.146A13.361,13.361,0,0,0,386,444a13.55,13.55,0,0,0-4.784-8.781c-.876-.747-2.026-2.175-3.076-2.643C376.136,431.691,374.17,433.219,372.468,434.021Z" transform="translate(-190.55 -241.236)" fill="#a1616a"/>
      <g id="Group_28" data-name="Group 28" transform="translate(107.277 75.61)" opacity="0.1">
        <path id="Path_359" data-name="Path 359" d="M384.151,253.942c-.831-.737-1.035-1.857-1.752-2.673-1.493-1.727-4.51-1.493-6.969-1.145-4.286.6-9.458.742-12.116-2.24-1.15-1.284-1.658-2.987-3.061-4.057-3.275-2.489-8.91.06-12.519-2.046-3.151-1.837-2.947-6.1-5.575-8.462s-7.183-2.056-10.752-.876a3.111,3.111,0,0,1-1.931.219c-1.13-.4-1.05-1.8-.772-2.837,1.359-5,2.743-10.055,5.386-14.655a30.8,30.8,0,0,0,2.713-5.1c1.08-3.156.528-6.725,1.946-9.712a13.4,13.4,0,0,0-3.928,3.485c-2.121,3.161-1.3,7.183-2.489,10.692a30.8,30.8,0,0,1-2.713,5.1c-2.643,4.6-4.027,9.652-5.386,14.655-.279,1.035-.358,2.439.772,2.837a3.111,3.111,0,0,0,1.931-.219c3.569-1.18,8.1-1.518,10.752.876s2.424,6.64,5.575,8.462c3.609,2.106,9.244-.438,12.519,2.046,1.4,1.065,1.911,2.773,3.061,4.057,2.678,2.987,7.83,2.842,12.116,2.24,2.459-.348,5.476-.582,6.969,1.145.717.816.921,1.936,1.752,2.673,1.493,1.334,4.226.657,5.685-.712a15.094,15.094,0,0,0,2.379-3.256A3.7,3.7,0,0,1,384.151,253.942Z" transform="translate(-324.055 -200.36)"/>
        <path id="Path_360" data-name="Path 360" d="M462.1,292.44a14.143,14.143,0,0,0-.891,1.289,26.987,26.987,0,0,0,5.366-4.376,10.56,10.56,0,0,0,1-1.434A26.144,26.144,0,0,0,462.1,292.44Z" transform="translate(-392.936 -244.334)"/>
      </g>
      <path id="Path_361" data-name="Path 361" d="M556.48,446.53,557.973,589.4l6.969-1-1.493-141.87Z" transform="translate(-279.47 -224.241)" fill="#3f3d56"/>
      <path id="Path_362" data-name="Path 362" d="M640.48,498.53,641.973,641.4l6.969-1-1.493-141.87Z" transform="translate(-321.656 -250.356)" fill="#3f3d56"/>
      <path id="Path_363" data-name="Path 363" d="M1002.746,619.179h0l-.03-2.743V614.8l-.264-25.128-.413-39.285-.07-3.39H995l.035,3.266.219,21.042.095,9.11h0l.08,7.377.129,12.753.08,7.522h0v.8l.1,9.886.09,8.716.568-.627q1.369-1.528,2.678-3.106Z" transform="translate(-553.735 -298.836)" fill="#3f3d56"/>
      <path id="Path_364" data-name="Path 364" d="M620.962,545.03l-3.982,5.953,3.982,27.125,33.85,9.264h54.757l32.854,1.986,15.65-10.712-2.708-18.4L743.418,545.03Z" transform="translate(-309.854 -273.709)" fill="#45aff7"/>
      <path id="Path_365" data-name="Path 365" d="M723.1,605.48l-1.991,16.536s-10.454,32.421,73.673,30.435,69.69-8.6,69.69-8.6l-.5-19.185s2.932,9.08-39.823,7.85-82.633-5.2-82.633-5.2S726.588,629.956,723.1,605.48Z" transform="translate(-415.977 -328.206)" fill="#3f3d56"/>
      <path id="Path_366" data-name="Path 366" d="M846.006,305.49c-4.8,2.185-8.433,6.421-10.867,11.106s-3.8,9.826-5.152,14.934a132.945,132.945,0,0,0-3.589,16.308c-1.314,9.816-.328,20.136,4.181,28.951s12.843,15.929,22.6,17.627a41.593,41.593,0,0,0,11.449.134,93.087,93.087,0,0,0,20.215-4.455c6.845-2.315,13.968-5.879,17.014-12.445,1.767-3.808,1.916-8.149,1.832-12.34a131.277,131.277,0,0,0-5.132-33.745,28.728,28.728,0,0,0-3.943-9.08,27.831,27.831,0,0,0-7.342-6.471C875.629,308.173,860.327,298.979,846.006,305.49Z" transform="translate(-468.791 -176.438)" fill="#fbbebe"/>
      <path id="Path_367" data-name="Path 367" d="M846.006,305.49c-4.8,2.185-8.433,6.421-10.867,11.106s-3.8,9.826-5.152,14.934a132.945,132.945,0,0,0-3.589,16.308c-1.314,9.816-.328,20.136,4.181,28.951s12.843,15.929,22.6,17.627a41.593,41.593,0,0,0,11.449.134,93.087,93.087,0,0,0,20.215-4.455c6.845-2.315,13.968-5.879,17.014-12.445,1.767-3.808,1.916-8.149,1.832-12.34a131.277,131.277,0,0,0-5.132-33.745,28.728,28.728,0,0,0-3.943-9.08,27.831,27.831,0,0,0-7.342-6.471C875.629,308.173,860.327,298.979,846.006,305.49Z" transform="translate(-468.791 -176.438)" opacity="0.05"/>
      <path id="Path_368" data-name="Path 368" d="M811.285,390.338a22.6,22.6,0,0,0,4.978,4.978c4.739,3.275,10.822,3.718,16.576,3.9,4.619.139,9.916-.124,12.813-3.728a14.922,14.922,0,0,0,2.419-5.71,253.261,253.261,0,0,0,6.919-37.717l13.181.045c5.7,24.426,5.237,49.819,4.739,74.9l-.722,36.578-8.492-.9c-20.165-2.135-40.361-4.271-60.636-4.639a346.857,346.857,0,0,0-35.6,1.175l18.493-54.986c2.4-7.148,4.824-14.391,5.386-21.9.811-10.9-2.245-22.4,1.991-32.481a3.95,3.95,0,0,1,1.538-2.076,4.368,4.368,0,0,1,2.633-.2c1.673.224,6.785,0,8,1.07,1.792,1.553.607,1.787-.025,4.291-1.13,4.48-2.2,8.627-2.185,13.3C803.306,374.7,805.934,383.652,811.285,390.338Z" transform="translate(-439.461 -198.628)" fill="#45aff7"/>
      <path id="Path_369" data-name="Path 369" d="M977.539,498.527h0q3.33-4.42,6.277-9.154c-1-2.131-2.091-4.211-2.962-6.387A64.18,64.18,0,0,1,978,472.607q-.388-1.792-.772-3.584c-2.788-13-5.406-26.179-5.949-39.355q-.075-1.643-.095-3.285v-4.092c.06-2.987.249-6,.592-9,.065-.587.139-1.175.219-1.762a2.529,2.529,0,0,1,.05-.383l33.85-1.234h0l2.847-.1c1.956-.07,4.027-.179,5.64-1.289,2.713-1.862,3.031-5.68,2.987-8.96a132.989,132.989,0,0,0-2.807-24.665c-1.284-6.1-3.116-12.34-7.228-17.029-3.375-3.853-8.263-6.655-10.021-11.449-.652-1.782-.816-3.738-1.663-5.441a16.948,16.948,0,0,0-3.564-4.266,59.4,59.4,0,0,1-11.4-15.79c-2.016-4.062-4.2-8.542-6.835-11.35-.129-.144-.259-.279-.393-.408-2.24-2.215-4.8-3.186-7.84-1.678a10.04,10.04,0,0,0-1.553.966h0a18.915,18.915,0,0,0-2.952,2.808,67.2,67.2,0,0,0-8.029,11.449,63.638,63.638,0,0,0-4.1,8.96,61.782,61.782,0,0,0-2.215,7.467c-.428,1.877-.767,3.773-1.035,5.675a138.064,138.064,0,0,0-.856,21.674c.149,6.65.443,13.316,1.045,19.941q.224,2.4.5,4.8.548,4.744,1.354,9.458c.214,1.2.433,2.4.677,3.594.06.319.124.637.189.951l.03.134a80.849,80.849,0,0,1,1.528,8.418q.06.533.09,1.06a40.966,40.966,0,0,1-.04,4.883c-.115,1.921-.294,3.838-.383,5.759a9.363,9.363,0,0,1-.035,1c-.025.971,0,1.941,0,2.912a46.14,46.14,0,0,0,.826,6.914,44.724,44.724,0,0,0,4.306,12.166c.189.358.383.712.577,1.06,2.524,4.51,5.71,8.647,8.044,13.261a57.243,57.243,0,0,1,4.48,13.047q.5,2.235.946,4.48c.463,2.389.876,4.8,1.3,7.208.04.239.085.5.129.717.563,3.2,1.155,6.377,1.916,9.5.443,1.817.941,3.609,1.523,5.371Z" transform="translate(-528.528 -178.184)" fill="#464353"/>
      <path id="Path_370" data-name="Path 370" d="M904.089,588.68c0,.448-.03.9-.05,1.349a63.792,63.792,0,0,1-.6,6.526,42.458,42.458,0,0,1-2.155,8.657,29.188,29.188,0,0,1-2.569,5.281,24.347,24.347,0,0,1-3.2,4.117c-2.987,3.106-7.288,4.1-11.449,5.406a28.184,28.184,0,0,0-5.521,2.255c-.314.174-.622.363-.921.563l-5.207,3.45a15.58,15.58,0,0,0-4.4,3.768,8.1,8.1,0,0,0-.5.841,19.074,19.074,0,0,0-1.533,4.6c-2.708,11.28-5.421,22.57-7.278,34.019-.124.757-.244,1.518-.373,2.28l-.045.239a1.251,1.251,0,0,0-.08-.164,299.576,299.576,0,0,1-41.366,21.141l-3.091-25.885a31.309,31.309,0,0,1-.319-6.362c.294-3.35,1.658-6.526,2.026-9.866a16.811,16.811,0,0,0-1.777-9.493,10.382,10.382,0,0,1-1.459-3.519,2.19,2.19,0,0,1,1.872-2.559,4.6,4.6,0,0,0,.782-4.107,11.943,11.943,0,0,0-.7-2.275c-.846-2.081-1.917-4.346-1.19-6.471a2.418,2.418,0,0,0,.249-1.244.2.2,0,0,0,0-.08c-.169-.558-.831-.8-1.175-1.274-.647-.881,0-2.081.4-3.1a11.813,11.813,0,0,0,.667-3.39c.055-.642.095-1.289.164-1.926a19.408,19.408,0,0,1,.463-2.559,20.2,20.2,0,0,1,8.179-11.708c1.936-1.3,4.092-2.255,6.068-3.484a55.59,55.59,0,0,0,5.784-4.48q6.576-5.476,13.674-10.324a172.734,172.734,0,0,1,15.79-9.587q1.742-.941,3.484-1.832,1.9-1,3.818-1.887c4.1-1.956,8.756-1.225,13.291.08,1.9.543,3.778,1.19,5.59,1.777a25.888,25.888,0,0,1,5.077,2.28,18.723,18.723,0,0,1,8.716,10.245.544.544,0,0,1,0,.085A26.069,26.069,0,0,1,904.089,588.68Z" transform="translate(-461.728 -307.573)" fill="#f86d70"/>
      <path id="Path_371" data-name="Path 371" d="M904.089,588.68c0,.448-.03.9-.05,1.349a63.792,63.792,0,0,1-.6,6.526,42.458,42.458,0,0,1-2.155,8.657,29.188,29.188,0,0,1-2.569,5.281,24.347,24.347,0,0,1-3.2,4.117c-2.987,3.106-7.288,4.1-11.449,5.406a28.184,28.184,0,0,0-5.521,2.255c-.314.174-.622.363-.921.563l-5.207,3.45a15.58,15.58,0,0,0-4.4,3.768,8.1,8.1,0,0,0-.5.841,19.074,19.074,0,0,0-1.533,4.6c-2.708,11.28-5.421,22.57-7.278,34.019-.124.757-.244,1.518-.373,2.28l-.045.239a1.251,1.251,0,0,0-.08-.164,299.576,299.576,0,0,1-41.366,21.141l-3.091-25.885a31.309,31.309,0,0,1-.319-6.362c.294-3.35,1.658-6.526,2.026-9.866a16.811,16.811,0,0,0-1.777-9.493,10.382,10.382,0,0,1-1.459-3.519,2.19,2.19,0,0,1,1.872-2.559,4.6,4.6,0,0,0,.782-4.107,11.943,11.943,0,0,0-.7-2.275c-.846-2.081-1.917-4.346-1.19-6.471a2.418,2.418,0,0,0,.249-1.244.2.2,0,0,0,0-.08c-.169-.558-.831-.8-1.175-1.274-.647-.881,0-2.081.4-3.1a11.813,11.813,0,0,0,.667-3.39c.055-.642.095-1.289.164-1.926a19.408,19.408,0,0,1,.463-2.559,20.2,20.2,0,0,1,8.179-11.708c1.936-1.3,4.092-2.255,6.068-3.484a55.59,55.59,0,0,0,5.784-4.48q6.576-5.476,13.674-10.324a172.734,172.734,0,0,1,15.79-9.587q1.742-.941,3.484-1.832,1.9-1,3.818-1.887c4.1-1.956,8.756-1.225,13.291.08,1.9.543,3.778,1.19,5.59,1.777a25.888,25.888,0,0,1,5.077,2.28,18.723,18.723,0,0,1,8.716,10.245.544.544,0,0,1,0,.085A26.069,26.069,0,0,1,904.089,588.68Z" transform="translate(-461.728 -307.573)" opacity="0.1"/>
      <path id="Path_372" data-name="Path 372" d="M900.05,446.973a.936.936,0,1,0-1.682.816l-.5.244,14.844,30.425,2.683-1.309L900.553,446.7Z" transform="translate(-504.955 -248.319)" fill="#3f3d56"/>
      <circle id="Ellipse_392" data-name="Ellipse 392" cx="31.858" cy="31.858" r="31.858" transform="translate(381.795 103.068)" fill="#fbbebe"/>
      <path id="Path_373" data-name="Path 373" d="M950.185,221.177a42.312,42.312,0,0,0-1.125-7.512c-1.872-8.049-5.292-15.974-11.18-21.753a43.54,43.54,0,0,0-1.3-4.176.8.8,0,0,0-.035-.1,46.745,46.745,0,0,0-7.517-13.326c-1.867-2.32-4.286-4.61-7.263-4.7a5.888,5.888,0,0,1-2.489-.269,4.48,4.48,0,0,1-1.389-1.424,13.037,13.037,0,0,0-12.624-4.724l-.309.065c-.174.035-.348.075-.5.119s-.418.119-.627.184q.344.567.672,1.15.886,1.578,1.643,3.226.627,1.374,1.16,2.793c-5.1.582-9.249,4.2-13.042,7.646l-8.93,8.1a.368.368,0,0,0-.045.045l-.259.249c-.065.065-.129.129-.189.2a.425.425,0,0,0-.065.07c-.075.08-.144.164-.214.249a3.753,3.753,0,0,0-.333.5,1.822,1.822,0,0,0-.129.234.5.5,0,0,0-.035.075,1.828,1.828,0,0,0-.085.209.069.069,0,0,0,0,.03,1.171,1.171,0,0,0-.035.124,1.494,1.494,0,0,0,.085,1.055l5.889.065h.692c.03.787.055,1.578.085,2.364a33.546,33.546,0,0,0-2.688,2.24,29.194,29.194,0,0,0-2.623,2.768A38.2,38.2,0,0,0,877.02,220v3.046c0,.5.045,1,.085,1.493a3.728,3.728,0,0,0,.5,1.847,1.712,1.712,0,0,0,.139.179,3.435,3.435,0,0,0,1.055.777l.428.209h0c.214.1.418.2.617.319,1.877,1.06,2.987,3.106,4.694,4.42.1.075.2.149.3.214l.224.149.139.09.189.11a4.068,4.068,0,0,0,.383.2h0l.239.119h.04c.2.09.4.174.6.249l.284.1.085.03c.08.025.164.055.249.075q.254.075.5.134l.5.11c.194.035.393.07.592.095l.294.04.3.03q.712.065,1.434.075h0a35.842,35.842,0,0,0,4.515-.314l12.7-1.493a27.373,27.373,0,0,1,8.667-.08,57.109,57.109,0,0,1,6.969,2.454c.528.184,1.055.353,1.588.5.194.055.393.114.592.164l.274.07.637.154c.229.055.458.11.687.154.324.07.642.129.966.189.219.045.443.08.667.119h.045l.637.1h.154l.473.065c.229.035.458.065.692.09q.762.095,1.523.164c.821.08,1.648.139,2.489.189l.826.05.826.04,2.489.11h.458a12.842,12.842,0,0,0,3.1-.159c.179-.035.353-.075.528-.124s.319-.1.5-.159a8.521,8.521,0,0,0,4.176-4.127c.2-.373.383-.747.553-1.13s.324-.772.463-1.16c.174-.5.324-.971.453-1.468.04-.134.075-.269.1-.408s.1-.413.139-.622c.124-.572.219-1.15.289-1.732a5.316,5.316,0,0,1,.065-.558c.045-.5.08-.961.1-1.449v-1.115C950.22,222.222,950.185,221.69,950.185,221.177Zm-12.763-29.718c-.4-.378-.816-.742-1.234-1.085a5.143,5.143,0,0,1,1.229,1.085Z" transform="translate(-494.484 -105.973)" fill="#464353"/>
      <path id="Path_374" data-name="Path 374" d="M759.271,309.647c-3.748-.463-7.467-2.106-11.165-1.3a15.474,15.474,0,0,0-6.158,3.415,74.873,74.873,0,0,0-17.308,19.787,10.453,10.453,0,0,0-1.6,3.743,9.922,9.922,0,0,0,.687,4.62c3.4,10.06,10.688,18.463,14,28.553,3.485,10.613,2.275,22.211-.294,33.083a138.259,138.259,0,0,1-15.352,38.18,21.772,21.772,0,0,1-3.534,4.839c-1.812,1.742-4.246,2.987-5.321,5.267a23.587,23.587,0,0,0-1,3.2c-1,2.987-3.4,5.545-3.639,8.7-.174,2.4.966,4.679,1.658,6.969a19.2,19.2,0,0,1-.354,12c-2.524,6.919-9.124,13.211-7.208,20.325,4.276-1.23,9.015-2.827,11.031-6.795.712-1.4,1.065-3.076,2.265-4.1,2.394-2.036,6.471-.194,9.015-2.066,1.921-1.424,1.991-4.341,1.135-6.581s-2.33-4.211-2.987-6.516c-1.145-4.157.687-8.552.349-12.848-.159-1.991-.772-3.9-.816-5.879-.085-3.848,2.046-7.467,4.878-10.08s6.332-4.346,9.777-6.053l13.022-6.471c4.724-2.34,9.9-5.192,11.449-10.23a20.719,20.719,0,0,0,.622-5.869c.443-30.121,7.99-59.635,15.491-88.81a110.04,110.04,0,0,1,4.082-13.4c1.732-4.341,5.122-7.825,6.85-11.857C778.835,302.284,769.68,310.951,759.271,309.647Z" transform="translate(-406.762 -176.472)" fill="#464353"/>
      <path id="Path_375" data-name="Path 375" d="M854.421,619.447c1.15,6.969,1.852,14.087,2.4,21.171A242.189,242.189,0,0,1,828.411,660.5c-.558.344-1.12.682-1.683,1l-.045.239a1.238,1.238,0,0,0-.08-.164,7.492,7.492,0,0,0-3.743-3.694Q817.35,646.3,811.85,634.729a60.8,60.8,0,0,1-4.978-12.868,1.988,1.988,0,0,0-.06-.289c-.757-3.485-.931-7.1-1.434-10.633A30.712,30.712,0,0,0,804.019,605c-.6-1.717-1.419-3.385-2.145-5.062a16.862,16.862,0,0,1-1.683-6.4,4.184,4.184,0,0,0-.3-2.091,5.423,5.423,0,0,0-1.359-1.314,5.182,5.182,0,0,1-1.673-4.734c-2.987.154-4.669,3.365-5.869,6.088a33.192,33.192,0,0,1-4.261,7.467,14.162,14.162,0,0,1-4.719,3.927c-.164.08-.329.159-.5.229-4.157,1.832-9.01,1.185-13.515.358-3.937-.722-8.009-1.618-11.175-4.067l-.338-.269a14.622,14.622,0,0,1-2.489-2.658c-2.653-3.624-3.828-8.4-4.48-12.943-.06-.428-.119-.856-.174-1.284a47.867,47.867,0,0,1-.373-9.7c.06-.8.144-1.593.249-2.384.07-.5.144-1.035.229-1.553a.141.141,0,0,1,0-.045c.129-.821.269-1.648.408-2.489.5-2.822,1-5.72,2.489-8.149A15.429,15.429,0,0,1,756,554c.538-.423,1.09-.826,1.648-1.215.906-.627,1.837-1.225,2.783-1.787a48.093,48.093,0,0,1,7.467-3.634c.617-.239,1.244-.463,1.872-.677a14.689,14.689,0,0,1,7.606-.6,40.025,40.025,0,0,0,6.81.4c5.839-.114,11.7-1.229,17.532-1.951,8.094-1,16.79-1.115,23.849,2.987.339.194.667.4,1,.612a29.493,29.493,0,0,1,8.557,9.045c.5.752.931,1.523,1.359,2.3a58.728,58.728,0,0,1,2.673,5.525A6.871,6.871,0,0,1,839.9,568a3.886,3.886,0,0,1-.08.587c-.134.707-.4,1.394-.5,2.111-.314,2.713,1.991,4.978,2.852,7.561a37.068,37.068,0,0,1,.811,5.257,27.343,27.343,0,0,0,2.768,6.969,87.158,87.158,0,0,1,4.43,11.135c.866,2.653,1.608,5.346,2.26,8.064q.319,1.309.6,2.623C853.584,614.713,854.027,617.072,854.421,619.447Z" transform="translate(-430.125 -297.307)" fill="#f86d70"/>
      <path id="Path_376" data-name="Path 376" d="M755.584,471.408v3.484l-.642-.01-.717-.01-8-.1-19.722-.259-5.535-.07-1.434-.02-8.308-.1-11.708-.154-24.84-.324-43.1-.558-15.556-.2-6.242-.08-5.744-.075-3.579-.05-3.39-.045-25.133-.324-6.969-.09-1.518-.02-.986-2.544-7.163-18.473-1.309-3.375,1-3.982,4.48,2.987,2.758.343,45.4,5.645,8.522,1.06,18.07,2.25,17.7,2.2,6.939.861,41.063,5.107,11.474,1.429,9.5,1.18,33.77,4.2Z" transform="translate(-278.214 -222.986)" fill="#3f3d56"/>
      <path id="Path_377" data-name="Path 377" d="M555.98,444.03l8.96,23.4,191.649,3.982V446.021Z" transform="translate(-279.219 -222.986)" fill="#504f60"/>
      <path id="Path_378" data-name="Path 378" d="M575.98,496.03,577.473,638.9l6.969-1-1.493-141.87Z" transform="translate(-289.263 -249.101)" fill="#3f3d56"/>
      <path id="Path_379" data-name="Path 379" d="M1057.346,552.245h-.717a157.54,157.54,0,0,1-5.74,26.278l-2.265-26.383-.094-1.125,8.373-.966.279-.03Z" transform="translate(-580.618 -300.353)" fill="#3f3d56"/>
      <path id="Path_380" data-name="Path 380" d="M806.555,462.488l-72.926,1.493-22.649-7.467,60.73-3.485Z" transform="translate(-357.062 -227.506)" fill="#fff"/>
      <path id="Path_381" data-name="Path 381" d="M823.647,459.137a4.888,4.888,0,0,0-1.991,1.419,5.257,5.257,0,0,0-.742,2.26l-1.225,7.3a3.231,3.231,0,0,0,.095,2.026c.319.612,1.245.931,1.707.423a6.558,6.558,0,0,0,.9,4.117,2.871,2.871,0,0,0,3.748.966,2.429,2.429,0,0,0,3.659.567c-.707.239-.757,1.319-.254,1.867a3.25,3.25,0,0,0,2.031.811,49.674,49.674,0,0,0,25.835-3.251c.772-.319-1.259-9.831-1.464-10.807-.5-2.295-.747-5.1-2.683-6.641-4.629-3.694-12.853-4.42-18.493-3.982A31.857,31.857,0,0,0,823.647,459.137Z" transform="translate(-465.632 -253.186)" fill="#fbbebe"/>
      <path id="Path_382" data-name="Path 382" d="M922.446,457.2c-18.005.344-36.383.637-53.567-4.754a36.338,36.338,0,0,1-.329,19.349l84.186,6.969c3.569.294,18.368,1.966,21.848,1.125s-29.2-11.6-27.876-14.934c3.629-9.174,15.785-14.55,7.029-14.894C942.686,449.623,933.581,456.99,922.446,457.2Z" transform="translate(-490.23 -250.143)" opacity="0.1"/>
      <path id="Path_383" data-name="Path 383" d="M923.446,459.2c-18.005.344-36.383.637-53.567-4.754a36.339,36.339,0,0,1-.329,19.349l84.186,6.969c3.569.294,18.368,1.991,21.848,1.125s2.663-5.132,3.982-8.462c3.629-9.174-16.074-21.022-24.83-21.365C943.686,451.623,934.581,458.99,923.446,459.2Z" transform="translate(-490.732 -251.148)" fill="#464353"/>
      <path id="Path_384" data-name="Path 384" d="M886.079,466.137a4.874,4.874,0,0,1,1.991,1.419,5.33,5.33,0,0,1,.747,2.26l1.225,7.3a3.265,3.265,0,0,1-.095,2.026c-.319.612-1.249.931-1.707.423a6.59,6.59,0,0,1-.9,4.117,2.876,2.876,0,0,1-3.753.966,2.429,2.429,0,0,1-3.659.568c.707.239.762,1.319.259,1.867a3.265,3.265,0,0,1-2.036.811,49.654,49.654,0,0,1-25.83-3.251c-.772-.319,1.254-9.831,1.464-10.807.5-2.295.747-5.1,2.683-6.641,4.624-3.694,12.853-4.42,18.493-3.982a31.86,31.86,0,0,1,11.116,2.922Z" transform="translate(-481.994 -256.702)" fill="#fbbebe"/>
      <path id="Path_385" data-name="Path 385" d="M675.239,397.291a31.869,31.869,0,0,0-4.375,6.79c-2.036,4.739-1.737,10.105-1.4,15.252a8.9,8.9,0,0,0,1,4.256,7.187,7.187,0,0,0,2.6,2.215c4.311,2.449,9.358,3.181,14.286,3.728q11.32,1.254,22.719,1.528c18.826.458,37.941-1.08,56.28,3.186-2.27-3.45-2.265-8.014-1-11.947s3.714-7.357,6.108-10.727c-8.393-2.658-17.393,1.493-26.184,1.08-9.025-.423-17.378-5.64-26.413-5.635a24.032,24.032,0,0,1-5.8-.224c-1.887-.468-3.714-1.892-3.888-3.828,2.409.543,4.694-1.518,5.69-3.778s1.175-4.814,2.14-7.089c2.4-5.66,8.9-8.283,12.943-12.943a3.171,3.171,0,0,0,.224-4.809c-3.36-4.48-8.422-6.969-12.629-10.454-1.464-1.215-4.415-5.794-6.058-6.217-3.047-.782-5.63,3.619-7.611,5.764Q688.863,379.744,675.239,397.291Z" transform="translate(-390.125 -203.71)" fill="#464353"/>
      <path id="Path_386" data-name="Path 386" d="M882.39,434.81a16.475,16.475,0,0,1,3.33,3.3,5.685,5.685,0,0,1,1.04,4.45,6.65,6.65,0,0,1,4.147-6.884Z" transform="translate(-497.181 -242.493)" opacity="0.07"/>
      <g id="Group_29" data-name="Group 29" transform="translate(382.465 57.222)" opacity="0.1">
        <path id="Path_387" data-name="Path 387" d="M934.345,167.975a43.242,43.242,0,0,0-2.021-4.555,12.207,12.207,0,0,0-1.453.373,42.1,42.1,0,0,1,2.3,4.4A8.348,8.348,0,0,1,934.345,167.975Z" transform="translate(-903.993 -163.42)"/>
        <path id="Path_388" data-name="Path 388" d="M995.87,212c.134.11.264.234.393.348a.715.715,0,0,0-.035-.095Q996.059,212.129,995.87,212Z" transform="translate(-936.637 -187.817)"/>
        <path id="Path_389" data-name="Path 389" d="M896.822,213.337c.259-.2.5-.418.776-.617l-.08-2.365L892.2,210.3c-.861.791-1.777,1.926-1.269,2.987Z" transform="translate(-883.863 -186.964)"/>
        <path id="Path_390" data-name="Path 390" d="M947.958,286.908a8.5,8.5,0,0,1-4.176,4.127,11.323,11.323,0,0,1-4.56.428c-5.247-.214-10.583-.448-15.541-2.185a54.866,54.866,0,0,0-6.969-2.459,27.228,27.228,0,0,0-8.666.085l-12.7,1.493c-3.748.438-7.925.767-10.917-1.533-1.712-1.314-2.817-3.36-4.694-4.415a5.967,5.967,0,0,1-2.245-1.493,3.729,3.729,0,0,1-.5-1.847c-.04-.523-.065-1.045-.085-1.568a42.111,42.111,0,0,0,.085,4.555,3.729,3.729,0,0,0,.5,1.847,5.966,5.966,0,0,0,2.245,1.493c1.877,1.055,2.987,3.1,4.694,4.415,2.987,2.3,7.168,1.991,10.917,1.533l12.7-1.493a27.228,27.228,0,0,1,8.666-.085,56.307,56.307,0,0,1,6.969,2.459c4.978,1.737,10.294,1.991,15.541,2.185a11.412,11.412,0,0,0,4.56-.428,8.5,8.5,0,0,0,4.176-4.127,21.128,21.128,0,0,0,2.151-11.175,19.444,19.444,0,0,1-2.15,8.189Z" transform="translate(-876.877 -220.732)"/>
      </g>
      <path id="Path_391" data-name="Path 391" d="M937.56,179l6.969,6.471S938.556,182.982,937.56,179Z" transform="translate(-524.888 -114.023)" opacity="0.1"/>
    </g>
  </g>
</svg>
