<svg xmlns="http://www.w3.org/2000/svg" width="679.659" height="329.946" viewBox="0 0 679.659 329.946">
  <g id="Group_55" data-name="Group 55" transform="translate(0 0.156)">
    <path id="Path_765" data-name="Path 765" d="M362.477,622.458,346.812,597.6l15.672,27.567.008,2.833q1.676-.02,3.319-.128l-1.278-36.388.017-.281-.029-.054-.122-3.438,16.379-27.246-16.4,24.671-.049.728-.965-27.492,14.081-28.189L363.259,553.54l-.66-56.984,0-.19,0,.187-.321,44.928L348.818,523.5l13.467,21.846.062,24.607-12.484-23.766,12.491,27.384.035,13.683-18.134-33.09L362.4,592.032Z" transform="translate(-209.442 -298.268)" fill="#e2e2e2"/>
    <path id="Path_766" data-name="Path 766" d="M550.189,622.458,534.524,597.6,550.2,625.167,550.2,628q1.676-.02,3.319-.129l-1.278-36.387.017-.281-.029-.054-.122-3.438,16.379-27.246-16.4,24.671-.049.728-.965-27.492,14.081-28.189L550.971,553.54l-.66-56.984,0-.19,0,.187-.321,44.928L536.529,523.5,550,545.351l.062,24.607-12.484-23.766,12.491,27.383.034,13.683-18.134-33.09,18.148,37.864Z" transform="translate(-262.73 -298.268)" fill="#e2e2e2"/>
    <path id="Path_767" data-name="Path 767" d="M176.595,638.582l-11.311-17.951L176.6,640.538l.006,2.045q1.21-.014,2.4-.093l-.923-26.275.012-.2-.021-.039-.088-2.483,11.827-19.674-11.839,17.815-.035.526-.7-19.852,10.168-20.355L177.16,588.817l-.477-41.148,0-.137,0,.135-.232,32.442-9.716-12.981,9.724,15.775.045,17.769-9.015-17.161,9.02,19.773.025,9.88L163.436,589.27l13.1,27.341Z" transform="translate(-158.111 -312.792)" fill="#e2e2e2"/>
    <path id="Path_768" data-name="Path 768" d="M1006.726,622.458,991.061,597.6l15.672,27.567.008,2.833q1.676-.02,3.319-.128l-1.278-36.388.017-.281-.029-.054-.122-3.438,16.379-27.246-16.4,24.671-.049.728-.965-27.492,14.081-28.189-14.191,23.358-.66-56.984,0-.19,0,.187-.321,44.928L993.067,523.5l13.467,21.846.063,24.607-12.484-23.766,12.491,27.384.035,13.683L988.5,554.168l18.148,37.864Z" transform="translate(-392.332 -298.268)" fill="#e2e2e2"/>
    <rect id="Rectangle_603" data-name="Rectangle 603" width="84.502" height="3.581" transform="translate(274.069 286.658) rotate(180)" fill="#45aff7"/>
    <rect id="Rectangle_604" data-name="Rectangle 604" width="84.502" height="3.581" transform="translate(269.772 283.078) rotate(180)" fill="#45aff7"/>
    <rect id="Rectangle_605" data-name="Rectangle 605" width="84.502" height="3.581" transform="translate(274.785 279.497) rotate(180)" fill="#45aff7"/>
    <rect id="Rectangle_606" data-name="Rectangle 606" width="84.502" height="3.581" transform="translate(283.378 275.916) rotate(180)" fill="#45aff7"/>
    <rect id="Rectangle_607" data-name="Rectangle 607" width="2.934" height="20.831" transform="translate(129.911 277.344) rotate(180)" fill="#3f3d56"/>
    <rect id="Rectangle_608" data-name="Rectangle 608" width="2.934" height="117.172" transform="translate(128.072 258.968) rotate(-112.092)" fill="#3f3d56"/>
    <rect id="Rectangle_609" data-name="Rectangle 609" width="25.525" height="9.975" transform="translate(98.225 308.444) rotate(180)" fill="#3f3d56"/>
    <rect id="Rectangle_610" data-name="Rectangle 610" width="125.865" height="11.149" transform="translate(200.912 318.419) rotate(180)" fill="#3f3d56"/>
    <path id="Path_769" data-name="Path 769" d="M133.68,421.8H163.9V383.806H141.308l-7.628,19.163Z" transform="translate(-37.949 -108.956)" fill="#e2e2e2"/>
    <rect id="Rectangle_611" data-name="Rectangle 611" width="12.909" height="12.909" transform="translate(121.256 290.107) rotate(180)" fill="#fff"/>
    <path id="Path_770" data-name="Path 770" d="M137.777,400.2h8.215V387.289h-3.521Z" transform="translate(-39.112 -109.945)" fill="#fff"/>
    <rect id="Rectangle_612" data-name="Rectangle 612" width="2.934" height="5.574" transform="translate(120.669 303.016) rotate(180)" fill="#3f3d56"/>
    <path id="Path_771" data-name="Path 771" d="M0,0H.147A2.787,2.787,0,0,1,2.934,2.787h0A2.787,2.787,0,0,1,.147,5.574H0V0Z" transform="translate(104.386 291.134) rotate(180)" fill="#3f3d56"/>
    <path id="Path_772" data-name="Path 772" d="M0,0H.147A2.787,2.787,0,0,1,2.934,2.787h0A2.787,2.787,0,0,1,.147,5.574H0V0Z" transform="translate(213.528 312.845) rotate(180)" fill="#3f3d56"/>
    <path id="Path_773" data-name="Path 773" d="M266.546,642.8a14.516,14.516,0,0,0-11.283,5.617H249.53l5.574-15.528,25.965-5.121-.733,20.649h-2.506a14.516,14.516,0,0,0-11.283-5.616Z" transform="translate(-182.551 -335.569)" fill="#e2e2e2"/>
    <circle id="Ellipse_472" data-name="Ellipse 472" cx="12.763" cy="12.763" r="12.763" transform="translate(70.94 303.749)" fill="#3f3d56"/>
    <circle id="Ellipse_473" data-name="Ellipse 473" cx="6.717" cy="6.717" r="6.717" transform="translate(76.985 309.795)" fill="#e2e2e2"/>
    <circle id="Ellipse_474" data-name="Ellipse 474" cx="11.149" cy="11.149" r="11.149" transform="translate(187.856 306.83)" fill="#3f3d56"/>
    <circle id="Ellipse_475" data-name="Ellipse 475" cx="5.868" cy="5.868" r="5.868" transform="translate(193.137 312.111)" fill="#e2e2e2"/>
    <rect id="Rectangle_613" data-name="Rectangle 613" width="6.161" height="44.449" transform="translate(131.231 314.018) rotate(180)" fill="#3f3d56"/>
    <rect id="Rectangle_614" data-name="Rectangle 614" width="88.605" height="2.641" transform="translate(213.674 308.591) rotate(180)" fill="#3f3d56"/>
    <rect id="Rectangle_615" data-name="Rectangle 615" width="2.934" height="1.174" transform="translate(105.56 292.014) rotate(180)" fill="#3f3d56"/>
    <path id="Path_774" data-name="Path 774" d="M480.364,604.639a.293.293,0,0,1-.075-.228l4.046-38.264a.293.293,0,0,1,.291-.263h0a.293.293,0,0,1,.292.26l4.376,38.184a.294.294,0,0,1-.289.327l-8.423.079h0A.293.293,0,0,1,480.364,604.639Zm4.275-35.782-3.732,35.288,7.768-.073Z" transform="translate(-248.059 -318.002)" fill="#3f3d56"/>
    <path id="Path_775" data-name="Path 775" d="M0,0H.147A2.787,2.787,0,0,1,2.934,2.787h0A2.787,2.787,0,0,1,.147,5.574H0V0Z" transform="matrix(0.935, 0.354, -0.354, 0.935, 72.607, 297.545)" fill="#3f3d56"/>
    <rect id="Rectangle_616" data-name="Rectangle 616" width="2.934" height="42.835" transform="translate(238.173 255.046) rotate(180)" fill="#3f3d56"/>
    <circle id="Ellipse_476" data-name="Ellipse 476" cx="4.107" cy="4.107" r="4.107" transform="translate(124.336 252.993)" fill="#3f3d56"/>
    <rect id="Rectangle_617" data-name="Rectangle 617" width="84.502" height="3.581" transform="translate(218.927 305.993) rotate(180)" fill="#45aff7"/>
    <rect id="Rectangle_618" data-name="Rectangle 618" width="84.502" height="3.581" transform="translate(223.94 302.413) rotate(180)" fill="#45aff7"/>
    <rect id="Rectangle_619" data-name="Rectangle 619" width="84.502" height="3.581" transform="translate(220.36 299.548) rotate(180)" fill="#45aff7"/>
    <rect id="Rectangle_620" data-name="Rectangle 620" width="84.502" height="3.581" transform="translate(225.373 295.968) rotate(180)" fill="#45aff7"/>
    <path id="Path_776" data-name="Path 776" d="M533.989,341.052a11.168,11.168,0,0,1,7.331,2.731,11.176,11.176,0,0,1,4.932-.217,11.214,11.214,0,0,1,20.449,6.364H523.019A11.218,11.218,0,0,1,533.989,341.052Z" transform="translate(-260.19 -253.513)" fill="#e2e2e2"/>
    <path id="Path_777" data-name="Path 777" d="M442.461,390.451a10.559,10.559,0,0,1,6.93,2.582,10.565,10.565,0,0,1,4.663-.2,10.6,10.6,0,0,1,19.332,6.017h-41.3A10.605,10.605,0,0,1,442.461,390.451Z" transform="translate(-234.377 -267.573)" fill="#e2e2e2"/>
    <path id="Path_778" data-name="Path 778" d="M350.546,309.024a10.986,10.986,0,0,1,7.211,2.687,10.993,10.993,0,0,1,4.851-.213,11.031,11.031,0,0,1,20.114,6.26H339.756A11.035,11.035,0,0,1,350.546,309.024Z" transform="translate(-208.165 -244.432)" fill="#e2e2e2"/>
    <path id="Path_779" data-name="Path 779" d="M751,422.2v89.447h34.785V420.958l-8.075.288v-18.3h-5.857l-.965-40.535c2.363-1.54,4.027-5.2,4.027-9.469a15.521,15.521,0,0,0-.425-3.641,7.448,7.448,0,0,0,.8-9.072,7.453,7.453,0,1,0,9.659-11.352,7.455,7.455,0,1,0-10.036-6.994c0,.109,0,.217.008.325a7.459,7.459,0,0,0-9.552,6,7.454,7.454,0,1,0-5.36,13.7c0,.054,0,.108,0,.162a36.233,36.233,0,0,0,2.633,6.04,15.057,15.057,0,0,0-.769,4.83c0,4.271,1.663,7.929,4.026,9.469l-.965,40.535h-5.857v18.968Zm21.721-85.41h.019c.108,0,.214,0,.321-.008q.1.33.23.647a7.484,7.484,0,0,0-.57-.64Z" transform="translate(-324.909 -246.618)" fill="#e2e2e2"/>
    <rect id="Rectangle_621" data-name="Rectangle 621" width="105.597" height="122.162" transform="translate(512.535 328.698) rotate(180)" fill="#3f3d56"/>
    <rect id="Rectangle_622" data-name="Rectangle 622" width="28.47" height="24.847" transform="translate(473.971 328.698) rotate(180)" fill="#e2e2e2"/>
    <path id="Path_780" data-name="Path 780" d="M671.209,265.536c0,.09-.007.18-.007.27a12.384,12.384,0,0,0,3.767,8.907,12.431,12.431,0,0,0,.621,1.16,25.082,25.082,0,0,0-1.282,8.05c0,9.434,4.867,17.082,10.87,17.082s10.87-7.648,10.87-17.082a25.851,25.851,0,0,0-.708-6.068,12.413,12.413,0,0,0,1.337-15.119,12.421,12.421,0,1,0,16.1-18.92,12.424,12.424,0,1,0-16.727-11.656c0,.182.006.362.014.542a12.431,12.431,0,0,0-15.919,10,12.424,12.424,0,1,0-8.934,22.829Zm21.216-8.529c.179,0,.357-.006.535-.014q.167.551.384,1.078a12.453,12.453,0,0,0-.95-1.066Z" transform="translate(-299.464 -219.737)" fill="#e2e2e2"/>
    <path id="Path_781" data-name="Path 781" d="M685.941,417.292h12.425l-.444-18.633v-.007L696.3,330.327a7.945,7.945,0,0,1-8.285,0l-1.626,68.325v.007Z" transform="translate(-306.44 -251.132)" fill="#45aff7"/>
    <path id="Path_782" data-name="Path 782" d="M498.141,238.1V387.181h57.971V236.03l-13.457.48v-30.5H511.6v31.609Z" transform="translate(-141.413 -58.483)" fill="#45aff7"/>
    <path id="Path_783" data-name="Path 783" d="M877.939,265.536c0,.09-.007.18-.007.27a12.384,12.384,0,0,0,3.767,8.907,12.411,12.411,0,0,0,.621,1.16,25.084,25.084,0,0,0-1.282,8.05c0,9.434,4.867,17.082,10.87,17.082s10.87-7.648,10.87-17.082a25.861,25.861,0,0,0-.708-6.068,12.413,12.413,0,0,0,1.337-15.119,12.421,12.421,0,1,0,16.1-18.92,12.424,12.424,0,1,0-16.727-11.656c0,.182.006.362.014.542a12.431,12.431,0,0,0-15.919,10,12.424,12.424,0,1,0-8.934,22.829Zm21.216-8.53c.179,0,.357-.006.535-.014q.167.551.384,1.078a12.438,12.438,0,0,0-.95-1.066Z" transform="translate(-358.151 -219.737)" fill="#e2e2e2"/>
    <path id="Path_784" data-name="Path 784" d="M892.674,417.294H905.1l-2.07-86.963a12.246,12.246,0,0,1-8.282,0Z" transform="translate(-365.128 -251.133)" fill="#45aff7"/>
    <path id="Path_785" data-name="Path 785" d="M704.871,238.1V387.181h57.977V236.03l-4.762.172-8.7.308v-30.5H718.327v31.609Z" transform="translate(-200.1 -58.483)" fill="#45aff7"/>
    <rect id="Rectangle_623" data-name="Rectangle 623" width="14.322" height="14.322" transform="translate(489.813 235.603) rotate(180)" fill="#fff"/>
    <rect id="Rectangle_624" data-name="Rectangle 624" width="14.322" height="14.322" transform="translate(466.897 235.603) rotate(180)" fill="#fff"/>
    <rect id="Rectangle_625" data-name="Rectangle 625" width="14.322" height="14.322" transform="translate(443.981 235.603) rotate(180)" fill="#fff"/>
    <rect id="Rectangle_626" data-name="Rectangle 626" width="14.322" height="14.322" transform="translate(489.813 258.519) rotate(180)" fill="#fff"/>
    <rect id="Rectangle_627" data-name="Rectangle 627" width="14.322" height="14.322" transform="translate(466.897 258.519) rotate(180)" fill="#fff"/>
    <rect id="Rectangle_628" data-name="Rectangle 628" width="14.322" height="14.322" transform="translate(443.981 258.519) rotate(180)" fill="#fff"/>
    <rect id="Rectangle_629" data-name="Rectangle 629" width="14.322" height="14.322" transform="translate(489.813 281.434) rotate(180)" fill="#fff"/>
    <rect id="Rectangle_630" data-name="Rectangle 630" width="14.322" height="14.322" transform="translate(466.897 281.434) rotate(180)" fill="#fff"/>
    <rect id="Rectangle_631" data-name="Rectangle 631" width="14.322" height="14.322" transform="translate(443.981 281.434) rotate(180)" fill="#fff"/>
    <rect id="Rectangle_632" data-name="Rectangle 632" width="14.322" height="14.322" transform="translate(392.875 229.874) rotate(180)" fill="#fff"/>
    <rect id="Rectangle_633" data-name="Rectangle 633" width="14.322" height="14.322" transform="translate(392.875 252.79) rotate(180)" fill="#fff"/>
    <rect id="Rectangle_634" data-name="Rectangle 634" width="14.322" height="14.322" transform="translate(392.875 275.705) rotate(180)" fill="#fff"/>
    <rect id="Rectangle_635" data-name="Rectangle 635" width="14.322" height="14.322" transform="translate(392.875 298.621) rotate(180)" fill="#fff"/>
    <rect id="Rectangle_636" data-name="Rectangle 636" width="14.322" height="14.322" transform="translate(540.8 229.874) rotate(180)" fill="#fff"/>
    <rect id="Rectangle_637" data-name="Rectangle 637" width="14.322" height="14.322" transform="translate(540.8 252.79) rotate(180)" fill="#fff"/>
    <rect id="Rectangle_638" data-name="Rectangle 638" width="14.322" height="14.322" transform="translate(540.8 275.705) rotate(180)" fill="#fff"/>
    <rect id="Rectangle_639" data-name="Rectangle 639" width="14.322" height="14.322" transform="translate(540.8 298.621) rotate(180)" fill="#fff"/>
    <rect id="Rectangle_640" data-name="Rectangle 640" width="635.914" height="1.432" transform="translate(0 328.193)" fill="#3f3d56"/>
    <path id="Path_786" data-name="Path 786" d="M31.351,439.726a98.279,98.279,0,0,0,8.553,16.45,70.776,70.776,0,0,0,5.181,7.125.362.362,0,0,0,.057.063H624.411l-.078-.062c-.521-.407-3.581-2.882-8.34-7.125-3.414-3.039-7.7-6.99-12.51-11.743-39.348-38.7-114.931-130.307-51.982-214.225,58.518-78.012-4.488-92.169-46.051-93.821a118.741,118.741,0,0,0-46.838,7.657c-19.2,7.3-54.3,18.483-100.019,23.612-1.5.167-3.013.334-4.545.485a437.89,437.89,0,0,1-72.857,1.324h0c-.714-.042-1.433-.094-2.158-.146a432.937,432.937,0,0,1-71.263-11.024c-1.517-.37-3.013-.719-4.5-1.069C125.276,139.18,53.378,200.68,71.355,270.181c6.646,25.707,4.957,53.108-17.2,75.276C17.877,381.64,22.271,417.277,31.351,439.726Z" transform="translate(55.249 -136.451)" fill="#49a7f8" opacity="0.1"/>
  </g>
</svg>
