<svg xmlns="http://www.w3.org/2000/svg" xmlns:xlink="http://www.w3.org/1999/xlink" width="408.678" height="306.413" viewBox="0 0 408.678 306.413">
  <defs>
    <linearGradient id="linear-gradient" x1="0.5" y1="1" x2="0.5" gradientUnits="objectBoundingBox">
      <stop offset="0" stop-color="gray" stop-opacity="0.251"/>
      <stop offset="0.54" stop-color="gray" stop-opacity="0.122"/>
      <stop offset="1" stop-color="gray" stop-opacity="0.102"/>
    </linearGradient>
  </defs>
  <g id="Group_32" data-name="Group 32" transform="translate(-9.897 -15.455)">
    <ellipse id="Ellipse_397" data-name="Ellipse 397" cx="25.489" cy="83.879" rx="25.489" ry="83.879" transform="translate(224.1 227.526) rotate(-78.45)" fill="#6c63ff" opacity="0.1"/>
    <path id="Path_412" data-name="Path 412" d="M828.56,389.615s4.461-21.9,21.494-19.87c0,0,11.771.808,14.192,8.515v17.033Z" transform="translate(-526.652 -241.845)" fill="#3a3768"/>
    <path id="Path_413" data-name="Path 413" d="M747.147,386.086,595.466,373.51,576,377.567l1.216,27.172,1.326.161,1.511,40.8,148.841,26.764,15.821-13.384V414.851l2.025-1.189Z" transform="translate(-351.959 -230.202)" fill="#d48a9b"/>
    <path id="Path_414" data-name="Path 414" d="M986.317,405.56l-.408,27.576-16.425,7.706-.2-28.8Z" transform="translate(-590.925 -249.676)" opacity="0.05"/>
    <path id="Path_415" data-name="Path 415" d="M981.8,478.94l.2,43.4L966.18,535.721,967.2,485.43Z" transform="translate(-589.041 -294.264)" opacity="0.05"/>
    <path id="Path_416" data-name="Path 416" d="M582.824,455.511,734.313,474l.078-3.508L582.71,454.13Z" transform="translate(-356.036 -279.188)" opacity="0.05"/>
    <path id="Path_417" data-name="Path 417" d="M982.738,480.533V478.94l-15.008,6.623v3.516Z" transform="translate(-589.983 -294.264)" opacity="0.05"/>
    <path id="Path_418" data-name="Path 418" d="M575.48,377.567l19.466-4.057,151.682,12.576-17.033,6.486Z" transform="translate(-351.643 -230.202)" fill="#efc6cd"/>
    <path id="Path_419" data-name="Path 419" d="M953.175,407.55l7.443.487-12.336,3.692L942,411.278Z" transform="translate(-574.349 -250.885)" opacity="0.1"/>
    <path id="Path_420" data-name="Path 420" d="M953.175,406.72l7.443.487-12.336,3.7L942,410.448Z" transform="translate(-574.349 -250.381)" fill="#fff"/>
    <path id="Path_421" data-name="Path 421" d="M1022.32,444.5c.294-.126.6.114.918.173.181.035.365,0,.546.035.365.047.726.29,1.075.169" transform="translate(-644.384 -287.33)" fill="#d3dae1"/>
    <path id="Path_422" data-name="Path 422" d="M1021.34,445.074c.29-.126.6.11.918.173.181.031.365,0,.545.031.365.051.726.294,1.075.173" transform="translate(-643.789 -287.675)" fill="#d3dae1"/>
    <path id="Path_423" data-name="Path 423" d="M1019.08,446.214c.294-.126.608.11.922.169.177.035.365,0,.542.035.369.051.73.294,1.075.169" transform="translate(-642.416 -288.368)" fill="#d3dae1"/>
    <path id="Path_424" data-name="Path 424" d="M871.175,398.21l7.443.49-12.336,3.692L860,401.938Z" transform="translate(-524.524 -245.21)" opacity="0.1"/>
    <path id="Path_425" data-name="Path 425" d="M871.175,397.39l7.443.487-12.336,3.692L860,401.118Z" transform="translate(-524.524 -244.712)" fill="#fff"/>
    <path id="Path_426" data-name="Path 426" d="M940.32,435.174c.294-.126.6.11.918.173.181.031.365,0,.545.031.365.051.726.294,1.075.173" transform="translate(-594.559 -281.66)" fill="#d3dae1"/>
    <path id="Path_427" data-name="Path 427" d="M939.34,435.744c.29-.126.6.11.918.169.181.035.365,0,.545.035.365.051.726.294,1.075.169" transform="translate(-593.964 -282.006)" fill="#d3dae1"/>
    <path id="Path_428" data-name="Path 428" d="M937.08,436.874c.294-.126.608.114.922.173.177.035.365,0,.542.035.369.047.73.294,1.075.169" transform="translate(-592.591 -282.694)" fill="#d3dae1"/>
    <path id="Path_429" data-name="Path 429" d="M910.5,402.88l7.447.487-12.336,3.7-6.286-.455Z" transform="translate(-548.422 -248.048)" opacity="0.1"/>
    <path id="Path_430" data-name="Path 430" d="M910.5,402.06l7.447.487-12.336,3.692-6.286-.455Z" transform="translate(-548.422 -247.55)" fill="#fff"/>
    <path id="Path_431" data-name="Path 431" d="M979.65,439.844c.294-.125.608.11.922.169.177.035.361,0,.541.035.365.047.73.294,1.075.169" transform="translate(-618.457 -284.498)" fill="#d3dae1"/>
    <path id="Path_432" data-name="Path 432" d="M978.67,440.4c.294-.126.608.114.922.173.177.035.361,0,.542.035.365.047.73.294,1.075.169" transform="translate(-617.862 -284.838)" fill="#d3dae1"/>
    <path id="Path_433" data-name="Path 433" d="M976.42,441.544c.291-.126.6.11.918.173.181.031.365,0,.546.031.365.051.726.294,1.075.173" transform="translate(-616.495 -285.531)" fill="#d3dae1"/>
    <ellipse id="Ellipse_398" data-name="Ellipse 398" cx="79.449" cy="16.354" rx="79.449" ry="16.354" transform="translate(114.112 274.562)" fill="#6c63ff" opacity="0.1"/>
    <path id="Path_434" data-name="Path 434" d="M539.32,311.622a53.231,53.231,0,0,0-4.2-14.553l.255-2.511s.055-1.256-.027-3.139a14.281,14.281,0,0,1,.459-3.484c.687-2.178-.859-4.854-1.032-5.1s.086-5.022-1.46-7.365-11.842-6.7-11.842-6.7-.553-1.158-1.334-2.511l.071-.137a14.756,14.756,0,0,0-2.354-3.174c-.632-.675-1.24-1.059-1.73-.871a14.122,14.122,0,0,1-.455-1.989c.1.027.208.055.31.075a3.2,3.2,0,0,0,1.295.031,3.847,3.847,0,0,0,2.127-1.883c2.66-4.041,4.952-8.475,5.419-13.258a8.431,8.431,0,0,0-.137-2.927,9.871,9.871,0,0,0-.918-2.138,17.187,17.187,0,0,0-2.59-3.818,14.753,14.753,0,0,0-6.957-3.81,24.083,24.083,0,0,0-8.985-.671c-.785.09-1.57.22-2.354.271a24.458,24.458,0,0,1-2.986-.051l-5.136-.3-.024-.078-.855-.051a2.165,2.165,0,0,0,.42,2.1,3.575,3.575,0,0,1,.867,2.025,4.139,4.139,0,0,1-.993,1.962,1.888,1.888,0,0,0-.318,2.052,1.176,1.176,0,0,0,.208.228,2.586,2.586,0,0,0,1.887.5h.118a12.779,12.779,0,0,0-2.6,7.738,13.011,13.011,0,0,0,7.1,11.528c.075.255.149.518.22.785a24.037,24.037,0,0,1,.824,8.483l-.09.2-.055-.208s-6.05,4.1-7.848,5.191-3.6,4.771-3.688,5.776S487,295.986,487,295.986a37.113,37.113,0,0,0-1.42,4.677l-3.614,3.174s-7.455.671-9.613.169l.063.416a32.6,32.6,0,0,0-5.791-.785,6.141,6.141,0,0,0-3.139.42l-.075.035-.059.027a12.441,12.441,0,0,0-3.3.926c-.126.051-.239.1-.349.153l.023-.514-8.067-.416-4.12-.836s-1.46-1.177-2.319-1-2.66-1-2.66-1a7.192,7.192,0,0,0-1.326-.824c-.137-.95-.224-1.526-.224-1.526s-3.206-12.721-5.607-20.2c-1.609-4.995-3.924-7.455-5.289-8.526-.608-1.059-1.008-1.742-1.008-1.742a7.793,7.793,0,0,0-2.076-3.037c-.059-.094-.1-.141-.126-.141a.46.46,0,0,0-.232.035c-.675-3.359-1.067-7.569-.035-11.238a12.4,12.4,0,0,0,4.528-9.558q0-.082,0-.165v-.169a12.348,12.348,0,0,0-2.915-7.965l-.133-.149a1.03,1.03,0,0,0,.1-.082,2.1,2.1,0,0,0,.742-2.025,13.876,13.876,0,0,0-1.067-2.06,13.346,13.346,0,0,1-.436-1.679,5.179,5.179,0,0,0-1.236-2.154l.059.157a7.456,7.456,0,0,0-6.565-2.205c-1.77.283-3.418,1.107-5.2,1.362-1.275.181-2.574.063-3.857.192a10.01,10.01,0,0,0-3.422.989,1.962,1.962,0,0,0-.726.534,2.871,2.871,0,0,0-.361,1.008c-.436,1.589-1.817,2.723-2.817,4.049a9.476,9.476,0,0,0-1.9,5.234,4.1,4.1,0,0,0,.137,1.432c.086.279.22.542.283.824a5.655,5.655,0,0,1-.475,2.578,5.018,5.018,0,0,0,.279,3.272c1.55,3.469,6.639,4.626,7.7,8.267a10.126,10.126,0,0,0,2.547.785c.071.361.133.726.184,1.095a.3.3,0,0,0-.067.039,7.8,7.8,0,0,0-1.715,3.924l-.165.133c-.561.463-2.48,2.017-4.214,3.214-2.06,1.424-5.493,6.2-7.895,7.62s-4.379,10.2-3.861,13.392,2.66,12.136,1.8,15.4,1.287,18.163,1.287,18.163a21.939,21.939,0,0,1,4.206,1.248l-.043.651-.129,1.962s-3.888,14.063-2.4,24.889-.687,11.94-.687,11.94.455,4.8-.687,6.474-1.373,5.356-1.373,5.356-.114,8.26.114,10.594.341,6.588-.459,7.592-2.288,7.585-2.174,9.594-2.86,6.588-1.26,12.5-4.709,6.027-4.709,6.027.8,9.025,2.519,11.606l.251.369c-.043.149-.086.306-.133.475-.647,2.354-1.534,6.07-.918,6.969.914,1.342,1.373,1.114,1.373,1.114l.341,6.027s6.867,5.8,12.132,5.584,4.234-5.584,4.234-5.584l-4.485-11.63-.153-.392,4.983-9.417s1.373-4.128,1.715-5.58,2.205-6.6,2.205-6.6,4.709-11.159,4.807-12.5.459-8.589,1.373-10.045,3.433-9.809,3.433-9.809l.063.055a3.308,3.308,0,0,1,.855,3.292,26.3,26.3,0,0,0-.231,6.47,44.021,44.021,0,0,1-.687,5.583c-.459,1.9-.569,17.41.232,21.09.64,2.947.62,8.464.589,10.551-.538,2.217-1.008,4.971-.133,5.3,1.491.561,9.044.447,9.044.447s3.2-1.118,7.553,2.79,17.735-1.114,17.735-1.114,4.12-1.118-4.006-4.351c-5.67-2.256-9.331-3.759-11.724-5.368.055-.106.114-.212.165-.326,0,0-3.32-3.139-.573-8.7a24.236,24.236,0,0,0,2.633-10.269l.459-18.752L441.948,360.9l-1.063-26.125.188-.063c.18,4.8,1.118,16.237,6.027,14.02,6.18-2.79.914-10.045.914-10.045l-2.774-5.407.828-.282-3.1-10.029a22.618,22.618,0,0,1-.118-5.913,23.425,23.425,0,0,0-.071-3.453c4.065-.71,7.957-1.464,8.656-1.291.824.2,5.434.239,7.247.247-.593.463-1.067.922-1.067.922l7.381,4.967s2.5-1.369,3.025-2.821a3.256,3.256,0,0,0,1.381-.738c.079,1.715.534,3.571,2.119,3.614a2.746,2.746,0,0,0,1.154-.228l12.07-2.39-1.036,6.47.722,1.283c-.365,5.458-.785,11.253-1.154,16.35L483.1,341.1l.086.02c-.573,7.848-1.032,13.792-1.032,13.792a7.231,7.231,0,0,1,3.01-3.025l.078,11.646s.6,18.414.6,20.926.082,8.118.082,8.118,1.291,6.863,2.06,9.123,1.373,12.556,1.373,12.556,1.8,2.845,1.032,3.924,3.006,3.429,3.006,3.429-2.405,3.265-2.578,5.442c-.02.251.228.518.675.785-.141.114-.286.228-.447.337a7.839,7.839,0,0,1-5.2,1.052c-6.7-.589-11.418,5.607-7.3,6.863s16.48,1.507,16.48,1.507,3.743-2.335,6.67-1.283c-.043,2.456.078,4.708.1,5.007l-.035.027c-1.75,1.57-5.1,4.269-8.373,5.372-4.709,1.589-5.752,8.036.341,8.872s15.02-1,15.02-1,4.634-3.429,8.154-4.183,6.525-2.429,5.925-4.438c-.392-1.283-1.4-4.646-2.084-6.906q-.059-.2-.118-.392c.106-.235.212-.479.31-.73,0,0-1.8-9.374-.341-11.716s.687-25.783.687-25.783-2.492-5.941-1.2-9.539-2.06-8.707-2.06-8.707a159.062,159.062,0,0,1,1.346-15.942l.129-.706a32.145,32.145,0,0,0,4.787-1.848s.859-12.894,1.373-15.821c.051-.275.122-.718.208-1.295l.392-2.068h0l.463-2.354h0l1.57-8.024,2.833-3.665,7.3-7.455S540.18,319.073,539.32,311.622Zm-112.55-46.038-.055.039a.686.686,0,0,1-.02-.086A.354.354,0,0,0,426.771,265.584Zm72.107,9.138-.283.616,1.032-1.028-1.4,1.57.471-.989Zm-6.969,14.4c-.271.718-.561,1.495-.863,2.3l.553-1.652Z" transform="translate(-258.757 -154.632)" fill="url(#linear-gradient)"/>
    <path id="Path_435" data-name="Path 435" d="M595.7,442.758s-.961,6.4,1.923,6.482,4.81-4.936,4.81-4.936l-1.177-4.014Z" transform="translate(-385.068 -284.791)" fill="#585b8a"/>
    <path id="Path_436" data-name="Path 436" d="M595.7,442.758s-.961,6.4,1.923,6.482,4.81-4.936,4.81-4.936l-1.177-4.014Z" transform="translate(-385.068 -284.791)" opacity="0.2"/>
    <path id="Path_437" data-name="Path 437" d="M410.094,766.11c-5.132.224-11.826-5.576-11.826-5.576l-.334-6.023s-.443.224-1.338-1.114c-.6-.9.263-4.622.895-6.965.306-1.146.557-1.962.557-1.962l11.261,3.013.538,1.424,4.371,11.622S415.222,765.886,410.094,766.11Z" transform="translate(-264.058 -469.617)" fill="#636992"/>
    <path id="Path_438" data-name="Path 438" d="M510.665,736.309s-13.047,5.019-17.265,1.115-7.361-2.79-7.361-2.79-7.361.114-8.813-.447c-.855-.326-.392-3.116.141-5.336.361-1.534.753-2.8.753-2.8s12.823-4.351,14.832-1.676a9.618,9.618,0,0,0,2.138,2.04c2.323,1.679,5.952,3.2,11.693,5.544C514.679,735.191,510.665,736.309,510.665,736.309Z" transform="translate(-312.886 -456.877)" fill="#636992"/>
    <path id="Path_439" data-name="Path 439" d="M528.333,496.35l3.567,7.137s5.132,7.251-.891,10.037-5.909-16.056-5.909-16.056Z" transform="translate(-342.262 -318.854)" fill="#ffd6d6"/>
    <path id="Path_440" data-name="Path 440" d="M495.25,338.61s3.9,1.785,6.247,9.256,5.466,20.188,5.466,20.188,2.119,14.385,1.781,17.955a23.148,23.148,0,0,0,.114,5.909l3.01,10.037-6.023,2.119-9.256-35.463Z" transform="translate(-324.125 -223.008)" fill="#dce6f2"/>
    <path id="Path_441" data-name="Path 441" d="M495.25,338.61s3.9,1.785,6.247,9.256,5.466,20.188,5.466,20.188,2.119,14.385,1.781,17.955a23.148,23.148,0,0,0,.114,5.909l3.01,10.037-6.023,2.119-9.256-35.463Z" transform="translate(-324.125 -223.008)" opacity="0.05"/>
    <path id="Path_442" data-name="Path 442" d="M410.99,747.5l.538,1.424-.659,1.26c-2.566,1.114-8.923.224-8.923.224s-1.177-1.495-2.786-3.955c.306-1.146.557-1.962.557-1.962Z" transform="translate(-265.739 -469.629)" opacity="0.1"/>
    <path id="Path_443" data-name="Path 443" d="M496.4,726.939c-3.253,7.369-14.31,4.634-17.382,3.712-.506-.153-.785-.255-.785-.255s.02-.6.027-1.546c.361-1.534.753-2.8.753-2.8s12.823-4.352,14.832-1.676a9.614,9.614,0,0,0,2.138,2.04A3.788,3.788,0,0,0,496.4,726.939Z" transform="translate(-313.783 -456.877)" opacity="0.1"/>
    <path id="Path_444" data-name="Path 444" d="M443.818,557.958c-2.676,5.572.561,8.7.561,8.7-3.253,7.365-14.31,4.634-17.382,3.708-.506-.149-.785-.251-.785-.251s.224-7.7-.557-11.379-.671-19.18-.224-21.075a44.868,44.868,0,0,0,.667-5.58,27.189,27.189,0,0,1,.224-6.466,3.339,3.339,0,0,0-.832-3.288l-.059-.059s-2.452,8.366-3.347,9.81-1.224,8.7-1.338,10.037-4.685,12.493-4.685,12.493-1.781,5.128-2.115,6.576-1.675,5.58-1.675,5.58l-5.376,10.374c-2.566,1.114-8.923.224-8.923.224s-1.224-1.569-2.9-4.128-2.452-11.595-2.452-11.595,6.133-.114,4.571-6.023,1.338-10.484,1.228-12.493,1.338-8.585,2.119-9.59.667-5.242.443-7.585-.11-10.594-.11-10.594.224-3.681,1.338-5.352.671-6.47.671-6.47,2.115-1.114.667-11.932S405.9,466.73,405.9,466.73l.129-1.962.2-3.178s31.9-2.009,34.462.443a8.458,8.458,0,0,1,1.628,2.335,23.229,23.229,0,0,1,1.844,5.937l1.338,33.792,1.338,24.869L446.4,547.7A24.908,24.908,0,0,1,443.818,557.958Z" transform="translate(-261.765 -297.263)" fill="#565988"/>
    <path id="Path_445" data-name="Path 445" d="M484.629,538.42l-3.347,72.488-4.018,6.608c-.506-.149-.785-.251-.785-.251s.224-7.7-.557-11.379-.671-19.18-.224-21.075a44.86,44.86,0,0,0,.667-5.58,27.19,27.19,0,0,1,.224-6.466,3.339,3.339,0,0,0-.832-3.288l.055-.392Z" transform="translate(-312.033 -344.417)" opacity="0.1"/>
    <path id="Path_446" data-name="Path 446" d="M406.8,732.828s8.7-3.457,10.037-2.354-10.257,2.786-10.257,2.786Z" transform="translate(-270.247 -460.981)" opacity="0.1"/>
    <path id="Path_447" data-name="Path 447" d="M504.059,713.5c-.333.114-8.809,3.139-8.028,6.357S504.059,713.5,504.059,713.5Z" transform="translate(-324.569 -450.799)" opacity="0.1"/>
    <path id="Path_448" data-name="Path 448" d="M449.07,286.637s2.841,6.859,1.338,10.374,16.225,9.535,16.225,9.535-5.183-13.384-.165-20.914S449.07,286.637,449.07,286.637Z" transform="translate(-296.065 -188.931)" fill="#ffd6d6"/>
    <path id="Path_449" data-name="Path 449" d="M672.25,778.038c-3.429.753-7.946,4.183-7.946,4.183s-8.7,1.84-14.64,1-4.932-7.279-.333-8.868c3.19-1.1,6.458-3.81,8.165-5.364.753-.695,1.2-1.177,1.2-1.177l16.649-3.347s.271.93.648,2.213c.667,2.264,1.652,5.623,2.029,6.9C678.607,775.613,675.68,777.285,672.25,778.038Z" transform="translate(-415.446 -481.77)" fill="#505484"/>
    <path id="Path_450" data-name="Path 450" d="M649.119,746.642s-7.027.753-9.954-.918-7.11,1-7.11,1-12.046-.251-16.06-1.507.585-7.455,7.11-6.859a7.5,7.5,0,0,0,5.073-1.052A5.344,5.344,0,0,0,630.387,734l14.126.836,1.962,5.007Z" transform="translate(-396.58 -463.255)" fill="#505484"/>
    <path id="Path_451" data-name="Path 451" d="M667.882,742.126s-16.417-2.684-18.512-4.814A5.345,5.345,0,0,0,651.579,734l14.126.836,1.962,5.007Z" transform="translate(-417.772 -463.255)" opacity="0.1"/>
    <path id="Path_452" data-name="Path 452" d="M634.52,513.647l.169,24.5s.585,18.4.585,20.914.082,8.11.082,8.11,1.256,6.859,2.009,9.119S638.7,588.85,638.7,588.85s1.758,2.845,1,3.924,2.927,3.429,2.927,3.429-2.354,3.265-2.507,5.438,18.732,5.262,18.732,5.262L651.5,531.461l-5.858-18.9Z" transform="translate(-408.749 -328.704)" fill="#575988"/>
    <path id="Path_453" data-name="Path 453" d="M634.52,513.647l.169,24.5s.585,18.4.585,20.914.082,8.11.082,8.11,1.256,6.859,2.009,9.119S638.7,588.85,638.7,588.85s1.758,2.845,1,3.924,2.927,3.429,2.927,3.429-2.354,3.265-2.507,5.438,18.732,5.262,18.732,5.262L651.5,531.461l-5.858-18.9Z" transform="translate(-408.749 -328.704)" opacity="0.1"/>
    <path id="Path_454" data-name="Path 454" d="M694.507,766.7c-5.466,13.031-18.465,2.974-18.465,2.974s0-.251-.031-.683c.753-.695,1.2-1.177,1.2-1.177l16.649-3.347S694.13,765.42,694.507,766.7Z" transform="translate(-433.959 -481.77)" opacity="0.1"/>
    <path id="Path_455" data-name="Path 455" d="M674.783,608.257c-5.356,13.733-18.654,3.429-18.654,3.429s-.42-7.11.42-10.37-.922-13.05-.922-13.05-1-8.7-1.923-10.7-.836-6.023-.836-6.357a12.135,12.135,0,0,0-.42-4.854,32.67,32.67,0,0,1-1.177-6.357,67.072,67.072,0,0,0-.753-10.119l-2.594-12.948L643.24,510.41l1.464-.251,26.223-4.6s4.936,25.112,3.261,27.686a10.8,10.8,0,0,0-.942,3.394c-.957,5.7-1.314,15.927-1.314,15.927s3.261,5.1,2.009,8.7,1.177,9.535,1.177,9.535.753,23.421-.671,25.763S674.783,608.257,674.783,608.257Z" transform="translate(-414.047 -324.45)" fill="#575988"/>
    <path id="Path_456" data-name="Path 456" d="M686.983,305.083s-23.755,16.727-18.4,8.362c2.884-4.5,2.354-10.241,1.224-14.573a34.376,34.376,0,0,0-2.354-6.392s20.184-8.585,17.508-.891a14.418,14.418,0,0,0-.785,5.588A14.912,14.912,0,0,0,686.983,305.083Z" transform="translate(-428.758 -192.491)" fill="#d28690"/>
    <path id="Path_457" data-name="Path 457" d="M589.2,426.549s-10.037-2.9-11.709-.055.5,9.088,3.531,10.092,9.982-3.4,9.982-3.4Z" transform="translate(-373.744 -275.648)" fill="#d28690"/>
    <path id="Path_458" data-name="Path 458" d="M615.229,416l-4.183,3.849s-7.279.667-9.37.165c0,0,1.927,12.882-.836,14.471l16.9-3.429Z" transform="translate(-388.284 -270.032)" fill="#585b8a"/>
    <path id="Path_459" data-name="Path 459" d="M615.229,416l-4.183,3.849s-7.279.667-9.37.165c0,0,1.927,12.882-.836,14.471l16.9-3.429Z" transform="translate(-388.284 -270.032)" opacity="0.1"/>
    <path id="Path_460" data-name="Path 460" d="M461.747,254.878a12.556,12.556,0,0,1-12.556,12.556c-6.443-3.1-12.556-5.615-12.556-12.556a12.556,12.556,0,1,1,25.093,0Z" transform="translate(-288.503 -164.199)" opacity="0.1"/>
    <path id="Path_461" data-name="Path 461" d="M461.833,254.834a12.533,12.533,0,1,1-2.841-7.938A12.532,12.532,0,0,1,461.833,254.834Z" transform="translate(-288.589 -164.493)" fill="#ffd6d6"/>
    <path id="Path_462" data-name="Path 462" d="M463.107,464.4a28.373,28.373,0,0,1-3.888,2.017s-6.357-.922-7.275.165-9.025,1.507-9.025,1.507-12.38-.585-14.22-2.174a7.536,7.536,0,0,0-1.88-1.114l.2-3.178s31.9-2.009,34.463.443A8.459,8.459,0,0,1,463.107,464.4Z" transform="translate(-282.546 -297.281)" opacity="0.1"/>
    <path id="Path_463" data-name="Path 463" d="M453.583,369.413c-.251,1.42-5.438,3.594-5.438,3.594s-6.357-.918-7.275.169-9.025,1.507-9.025,1.507-12.38-.589-14.22-2.178-5.941-2.354-5.941-2.354-2.091-14.887-1.252-18.147-1.256-12.215-1.758-15.393,1.42-11.96,3.763-13.38,5.69-6.192,7.695-7.612c1.691-1.2,3.559-2.747,4.1-3.214l.161-.133a7.918,7.918,0,0,1,1.675-3.924c1.338-1.33,13.631,8.448,13.631,8.448s.086.753.922-.667c.188-.318,1.809,2.021,2.091,3.01,0,0,6.69,11.712,7.11,14.126s2.174,10.288,2.507,12.211c.086.494.228,2.229.392,4.552.031.455.059.938.094,1.44.247,3.853.514,8.774.675,12.493,0,.424.035.832.047,1.224A41.66,41.66,0,0,1,453.583,369.413Z" transform="translate(-271.472 -204.544)" fill="#dce6f2"/>
    <path id="Path_464" data-name="Path 464" d="M415,387.21s4.6,5.6,6.105,5.6S415,387.21,415,387.21Z" transform="translate(-275.364 -252.538)" opacity="0.1"/>
    <path id="Path_465" data-name="Path 465" d="M429.442,417.91s-7.53,8.2-6.525,9.7S429.442,417.91,429.442,417.91Z" transform="translate(-280.118 -271.192)" opacity="0.1"/>
    <path id="Path_466" data-name="Path 466" d="M425.62,439.793s8.632-9.452,9.025-12.713Z" transform="translate(-281.816 -276.764)" opacity="0.1"/>
    <path id="Path_467" data-name="Path 467" d="M453.33,445.308s9.955-5.27,10.79-9.452S453.33,445.308,453.33,445.308Z" transform="translate(-298.654 -281.612)" opacity="0.1"/>
    <path id="Path_468" data-name="Path 468" d="M483.381,329.891,482,333.234l2.3,1.087,2.26,6.317s6.231,12.462,5.98,18.944a114.826,114.826,0,0,0,1.13,16.225l3.594-.667-1.7-19.066a27.5,27.5,0,0,0-2.189-8.558c-2.872-6.576-8.216-18.716-8.554-18.716-.459,0-.137.169-.137.169Z" transform="translate(-316.074 -217.047)" opacity="0.1"/>
    <path id="Path_469" data-name="Path 469" d="M484.231,329.037l-1.381,3.347,2.3,1.087,2.256,6.317s6.231,12.462,5.98,18.944a114.826,114.826,0,0,0,1.13,16.225l3.6-.667-1.7-19.066a27.4,27.4,0,0,0-2.186-8.558c-2.872-6.58-8.216-18.716-8.55-18.716-.463,0-.141.169-.141.169Z" transform="translate(-316.591 -216.531)" fill="#575989"/>
    <path id="Path_470" data-name="Path 470" d="M577.292,437.967c-1.75-.133-5.948-2.256-7.616-3.139l-.706-.392.086-6.478a11.4,11.4,0,0,1,1.279-.647c2.229-.973,6.8-2.3,9.091,1.962C582.519,434.981,579.509,438.116,577.292,437.967Z" transform="translate(-368.919 -276.304)" fill="#ffd6d6"/>
    <path id="Path_471" data-name="Path 471" d="M458.887,246.83a1.856,1.856,0,0,1-.585.239c-1.456.318-3.112-.934-4.359-.129a3.159,3.159,0,0,0-1.04,2.421q-.267,2.354-.534,4.677a5.773,5.773,0,0,1-.345,1.613,4.046,4.046,0,0,1-3.849,2.048,2.3,2.3,0,0,1-1.66-.549c-.271-.275-.416-.659-.714-.91-1.962-1.644-2.558,2.386-2.04,3.531.832,1.872,3.786,3.677,2.547,6.054a2.268,2.268,0,0,1-.91.914,12.556,12.556,0,1,1,13.49-19.909Z" transform="translate(-288.484 -164.427)" opacity="0.1"/>
    <path id="Path_472" data-name="Path 472" d="M439.214,247.439c.294.247.443.632.714.906a2.3,2.3,0,0,0,1.66.549,4.025,4.025,0,0,0,3.845-2.052,5.585,5.585,0,0,0,.349-1.609l.534-4.677a3.146,3.146,0,0,1,1.04-2.421c1.248-.785,2.9.447,4.359.129a2.131,2.131,0,0,0,1.57-2.456,13.825,13.825,0,0,0-1.036-2.056,13.434,13.434,0,0,1-.428-1.675c-.812-3.045-4.387-4.756-7.494-4.246-1.726.286-3.331,1.11-5.062,1.362-1.24.18-2.507.063-3.759.2a9.488,9.488,0,0,0-3.335.985,1.939,1.939,0,0,0-.706.534,2.948,2.948,0,0,0-.353,1c-.42,1.57-1.77,2.727-2.747,4.049a9.649,9.649,0,0,0-1.86,5.223,4.189,4.189,0,0,0,.133,1.432c.082.275.212.542.275.824a5.74,5.74,0,0,1-.463,2.574,5.147,5.147,0,0,0,.275,3.272c1.507,3.465,6.47,4.622,7.5,8.26a8.239,8.239,0,0,0,2.919.785,2.816,2.816,0,0,0,2.574-1.314c1.236-2.354-1.715-4.183-2.547-6.05C436.652,249.817,437.236,245.791,439.214,247.439Z" transform="translate(-282.23 -155.642)" fill="#353045"/>
    <path id="Path_473" data-name="Path 473" d="M685,291.59a14.418,14.418,0,0,0-.785,5.588c-.6.514-1.263-1.024-1.962-.628-1.915,1.106-4.128,3.739-6.5,3.739a13.015,13.015,0,0,1-5.913-1.416,34.393,34.393,0,0,0-2.354-6.392S687.678,283.9,685,291.59Z" transform="translate(-428.782 -192.491)" opacity="0.1"/>
    <path id="Path_474" data-name="Path 474" d="M681.361,263.551a13.051,13.051,0,1,1-13.05-13.051A13.05,13.05,0,0,1,681.361,263.551Z" transform="translate(-421.351 -169.47)" fill="#d28690"/>
    <path id="Path_475" data-name="Path 475" d="M670.444,326.931s-2.456,2.676-2.79,2.9-7.455,30.213-7.581,30.562-8.479,27.431-8.479,27.431L638.21,394.4l1.118-33.125,9.809-27.317s3.237-3.681,4.238-5.018,13.494-9.37,13.494-9.37l2.134,4.4Z" transform="translate(-410.991 -211.439)" fill="#f0f3f7"/>
    <path id="Path_476" data-name="Path 476" d="M691.636,325.679,676.247,336.7,676,330.646c1-1.338,13.494-9.366,13.494-9.366Z" transform="translate(-433.953 -212.478)" opacity="0.1"/>
    <path id="Path_477" data-name="Path 477" d="M692.5,323.969l-15.389,11.018-.239-6.047c1-1.342,13.494-9.37,13.494-9.37Z" transform="translate(-434.481 -211.439)" fill="#f0f3f7"/>
    <path id="Path_478" data-name="Path 478" d="M646.206,336.59l.514,2.692-3.441,3.5,2.747-6.149s-5.886,4.1-7.651,5.187-3.531,4.767-3.6,5.772-2.845,16.142-2.845,16.142-2.091,5.6-1.5,7.192-3.178,51.692-3.178,51.692a7.455,7.455,0,0,1,5.03-3.857l-1.342-29.609s1.632-19.7,1.715-19.949,3.806-11.669,3.806-11.669Z" transform="translate(-404.331 -221.78)" fill="#585b8a"/>
    <path id="Path_479" data-name="Path 479" d="M649.943,344.3l-.267,5.493s-3.724,11.752-4.975,13.674-5.062,13.384-5.062,13.384l-2.146,19.909-3.68,1.675L632,395.1l3.013-19.227s5.686-16.225,6.525-17.9l4.195-8.836Z" transform="translate(-407.217 -226.465)" opacity="0.1"/>
    <path id="Path_480" data-name="Path 480" d="M649.065,343.45l-.263,5.493s-3.724,11.752-4.979,13.674S638.765,376,638.765,376l-2.135,19.905-3.68,1.672-1.84-3.343,3.013-19.227s5.685-16.229,6.521-17.9l4.226-8.825Z" transform="translate(-406.677 -225.949)" fill="#663d5c"/>
    <path id="Path_481" data-name="Path 481" d="M566.31,447.484l7.192,4.979s5.073-2.845,2.119-4.685a13.1,13.1,0,0,0-6.525-2.119C568.146,445.66,566.31,447.484,566.31,447.484Z" transform="translate(-367.303 -288.054)" fill="#d28690"/>
    <path id="Path_482" data-name="Path 482" d="M579.192,425.825a1.106,1.106,0,0,0-.522.946c0,1.526.173,5.568,1.452,3.743,1.569-2.233,1.283-4.238,3.68-2.79a14.125,14.125,0,0,1,3.845,3.531l-.667-4.795S582.052,424.028,579.192,425.825Z" transform="translate(-374.813 -275.6)" fill="#d28690"/>
    <path id="Path_483" data-name="Path 483" d="M676.152,533.206a10.8,10.8,0,0,0-.942,3.394c-14.667,4.4-25.4-4.9-25.4-4.9a127.985,127.985,0,0,1-3.178-13.38,43.6,43.6,0,0,1,.039-8.2l26.223-4.6S677.828,530.613,676.152,533.206Z" transform="translate(-416.005 -324.426)" opacity="0.1"/>
    <path id="Path_484" data-name="Path 484" d="M691.174,345.187c-.667,2.178-.416,6.608-.416,6.608l-6.023,28.44s-2.927,21.914-3.429,24.841-1.338,15.809-1.338,15.809a28.331,28.331,0,0,1-30.213-3.01,128.243,128.243,0,0,1-3.178-13.384c-.84-4.967,1.632-24.869,2.8-33.709.349-2.617.585-4.265.585-4.265l4.391-16.311s5.4-13.761,7.4-17.775S671.833,319.4,671.833,319.4c1-.636,2.6,1.609,3.79,3.653.9,1.546,1.569,2.982,1.569,2.982s10.037,4.348,11.54,6.67,1.256,7.11,1.424,7.361S691.844,343.013,691.174,345.187Z" transform="translate(-415.97 -211.269)" fill="#585b8a"/>
    <path id="Path_485" data-name="Path 485" d="M672.649,335.584s.753,4.434-1.177,5.772c-1.864,1.295-15.738,28.577-16.6,30.28.349-2.621.585-4.269.585-4.269l4.391-16.307s5.4-13.761,7.4-17.779,10.08-13.031,10.08-13.031c1-.636,2.6,1.609,3.786,3.653C679.323,327.627,675.584,334.666,672.649,335.584Z" transform="translate(-421.114 -211.785)" opacity="0.1"/>
    <path id="Path_486" data-name="Path 486" d="M671.787,334.734s.749,4.434-1.177,5.772S654.875,369.079,654,370.782c.349-2.617.585-4.265.585-4.265l4.391-16.311s5.4-13.761,7.4-17.775S676.456,319.4,676.456,319.4c1-.636,2.6,1.609,3.79,3.653C678.461,326.773,674.718,333.816,671.787,334.734Z" transform="translate(-420.585 -211.269)" fill="#585b8a"/>
    <path id="Path_487" data-name="Path 487" d="M622.768,413.262l-4.72,24.559v0l-.451,2.35v0l-1.016,5.285-4.336-.918-2.021-.428-27.965-5.925-2.056-.436-4.693-.993.918-6.1.381-2.535L580.2,405.65Z" transform="translate(-351.661 -249.731)" fill="#6c63ff"/>
    <path id="Path_488" data-name="Path 488" d="M669.544,511.92s-11.124,4.014-8.7,8.781,17.983-3.681,17.983-3.681Z" transform="translate(-424.534 -328.315)" fill="#d28690"/>
    <path id="Path_489" data-name="Path 489" d="M703.8,599.1c0,.334.42,4.6,2.091,6.105S703.8,599.1,703.8,599.1Z" transform="translate(-450.845 -381.287)" opacity="0.1"/>
    <path id="Path_490" data-name="Path 490" d="M675.24,637.68s2.005,5.521,9.951,7.781S675.24,637.68,675.24,637.68Z" transform="translate(-433.491 -404.729)" opacity="0.1"/>
    <path id="Path_491" data-name="Path 491" d="M685.292,263.6a13.047,13.047,0,0,1-6.541,11.312,6.944,6.944,0,0,1-1.962-1.636,2.536,2.536,0,0,1-.671-2.456c.275-.663,1-1.083,1.177-1.77a2.605,2.605,0,0,0-.063-1.263c-.145-.647-.283-1.295-.424-1.938-.122-.549-.337-1.2-.883-1.33s-1,.322-1.428.659c-1.048.828-3.057,1.389-4.316.71s-.906-2.951-1.11-4.179a.73.73,0,0,0-.275-.553,1.146,1.146,0,0,0-.569-.039,1.638,1.638,0,0,1-1.42-1.26,10.845,10.845,0,0,1-.228-2.021,2.254,2.254,0,0,0-.9-1.746,2.79,2.79,0,0,0-1.487-.243l-2.46.027a13.051,13.051,0,0,1,23.543,7.738Z" transform="translate(-425.282 -169.523)" opacity="0.1"/>
    <path id="Path_492" data-name="Path 492" d="M671.318,259.732c.428-.337.9-.785,1.428-.655s.757.785.879,1.326l.424,1.934a2.629,2.629,0,0,1,.067,1.267c-.2.691-.922,1.106-1.2,1.77a2.535,2.535,0,0,0,.671,2.452,7.062,7.062,0,0,0,4.037,2.413,2.966,2.966,0,0,0,1.26.027,3.727,3.727,0,0,0,2.072-1.88c2.594-4.041,4.826-8.471,5.281-13.251a8.5,8.5,0,0,0-.133-2.923,9.811,9.811,0,0,0-.895-2.138,17.261,17.261,0,0,0-2.523-3.818,14.33,14.33,0,0,0-6.78-3.8,22.962,22.962,0,0,0-8.754-.687c-.785.09-1.538.22-2.311.271a23.253,23.253,0,0,1-2.911-.047l-5.776-.345a2.244,2.244,0,0,0,.392,2.1,3.76,3.76,0,0,1,.848,2.025,4.166,4.166,0,0,1-.969,1.962,1.931,1.931,0,0,0-.31,2.052,2.195,2.195,0,0,0,1.962.644l2.911-.031a2.782,2.782,0,0,1,1.479.255,2.261,2.261,0,0,1,.9,1.746,11.543,11.543,0,0,0,.228,2.021,1.632,1.632,0,0,0,1.42,1.26,1.06,1.06,0,0,1,.569.043.722.722,0,0,1,.275.549c.2,1.228-.173,3.5,1.11,4.179S670.27,260.56,671.318,259.732Z" transform="translate(-421.753 -164.074)" fill="#663d5c"/>
    <path id="Path_493" data-name="Path 493" d="M699.156,353.414a6.4,6.4,0,0,0-6.729,4.3c-1.569,4.469-4.187,12.533-3.531,15.719.922,4.516,2.009,12.046,2.009,12.046s4.767,2.747,2.354,5.517a15.626,15.626,0,0,0-3.1,6.694s-3.1,1.338-3.763,4.183-5.187,6.772-5.187,6.772l-6.772,6.776s11.206,11.379,13.466,11.96l6.941-8.114,8.2-10.873,7.11-7.455s1.672-3.924.836-11.379A54.456,54.456,0,0,0,706.89,375l.251-2.511S707.91,354.5,699.156,353.414Z" transform="translate(-433.005 -231.981)" opacity="0.1"/>
    <path id="Path_494" data-name="Path 494" d="M700.862,353.415a6.4,6.4,0,0,0-6.721,4.3c-1.569,4.469-4.187,12.533-3.531,15.719.918,4.516,2.005,12.046,2.005,12.046s4.767,2.747,2.354,5.517a15.593,15.593,0,0,0-3.092,6.694s-3.1,1.338-3.767,4.183-5.183,6.772-5.183,6.772l-6.776,6.776s11.206,11.379,13.466,11.96l6.941-8.114,8.177-10.873,7.11-7.455s1.675-3.924.836-11.379a54.7,54.7,0,0,0-4.1-14.553l.251-2.511S709.616,354.5,700.862,353.415Z" transform="translate(-434.044 -231.983)" fill="#585b8a"/>
    <path id="Path_495" data-name="Path 495" d="M721.28,418.34s7.11,8.7,10.123,6.772S721.28,418.34,721.28,418.34Z" transform="translate(-461.466 -271.453)" opacity="0.1"/>
    <path id="Path_496" data-name="Path 496" d="M728.1,401.28c.753.251,6.945,8.868,10.123,7.848S728.1,401.28,728.1,401.28Z" transform="translate(-465.61 -261.087)" opacity="0.1"/>
    <path id="Path_497" data-name="Path 497" d="M732.58,439s.42,4.936,5.521,4.265S732.58,439,732.58,439Z" transform="translate(-468.332 -284.007)" opacity="0.1"/>
    <path id="Path_498" data-name="Path 498" d="M616.748,301.83l-2.758,6.149,3.445-3.5Z" transform="translate(-375.043 -186.648)" opacity="0.1"/>
    <path id="Path_499" data-name="Path 499" d="M616.748,300.98l-2.758,6.149,3.445-3.5Z" transform="translate(-375.043 -186.131)" fill="#f0f3f7"/>
    <path id="Path_500" data-name="Path 500" d="M583.681,473.011l-2.056-.436-3.775-7.09.381-2.535Z" transform="translate(-353.083 -284.548)" opacity="0.3"/>
    <path id="Path_501" data-name="Path 501" d="M671.8,487.65l-.451,2.35v0L666,494.371l-2.021-.428Z" transform="translate(-405.418 -299.556)" opacity="0.3"/>
    <path id="Path_502" data-name="Path 502" d="M460.6,387.011c-1.036.173-2.04.33-2.958.447-5.1.671-17.233-5.352-17.233-5.352s-14.8-12.38-19.07-24.088,5.1-13.466,5.1-13.466c3.531-2.009,11.21,3.594,12.3,4.516a6.984,6.984,0,0,1,1.923,4.767c-.086,1.507,2.511,3.429,2.511,3.429s4.434,7.695,5.521,8.53a4.365,4.365,0,0,1,1.672,3.014c.334,1.424,3.261,2.594,4.516,2.507s2.747.42,2.747,1.087c0,.538,1.228.8,2.237.891C460.158,377.582,460.452,383.2,460.6,387.011Z" transform="translate(-278.537 -226.356)" opacity="0.1"/>
    <path id="Path_503" data-name="Path 503" d="M461.589,383.714c-.785.126-1.538.239-2.244.333-5.1.671-17.229-5.352-17.229-5.352s-14.8-12.38-19.07-24.088,5.1-13.466,5.1-13.466c3.531-2.009,11.206,3.594,12.293,4.516a7.006,7.006,0,0,1,1.927,4.767c-.082,1.507,2.507,3.429,2.507,3.429s4.434,7.695,5.521,8.53a4.384,4.384,0,0,1,1.675,3.014c.337,1.424,3.261,2.59,4.516,2.507s2.747.42,2.747,1.087c0,.392.7.655,1.475.785.031.455.059.938.094,1.44C461.162,375.074,461.429,379.995,461.589,383.714Z" transform="translate(-279.576 -224.284)" opacity="0.1"/>
    <path id="Path_504" data-name="Path 504" d="M570.336,428.84l-.318,7.518h-.341l-.706-.392.086-6.478A11.389,11.389,0,0,1,570.336,428.84Z" transform="translate(-368.919 -277.833)" opacity="0.1"/>
    <path id="Path_505" data-name="Path 505" d="M426.437,342.843s-9.366,1.758-5.1,13.466,19.07,24.092,19.07,24.092,12.128,6.019,17.233,5.352,12.878-2.425,13.882-2.174,7.781.251,7.781.251l.333-7.848-7.848-.42-4.014-.836s-1.424-1.177-2.26-1-2.59-1-2.59-1a5,5,0,0,0-2.354-1.087c-1.012,0-2.927-.251-2.927-.918s-1.507-1.177-2.747-1.087-4.2-1.087-4.548-2.527a4.366,4.366,0,0,0-1.672-3.01c-1.087-.836-5.521-8.534-5.521-8.534s-2.594-1.923-2.511-3.425a7.02,7.02,0,0,0-1.923-4.771C437.636,346.438,429.945,340.838,426.437,342.843Z" transform="translate(-278.537 -225.319)" fill="#dce6f2"/>
    <path id="Path_506" data-name="Path 506" d="M493.078,412.15s-3.6,3.6-2.68,4.265Z" transform="translate(-321.086 -267.692)" opacity="0.1"/>
    <path id="Path_507" data-name="Path 507" d="M501.618,419.4s-4.685,3.6-3.429,3.849S501.618,419.4,501.618,419.4Z" transform="translate(-325.781 -272.098)" opacity="0.1"/>
    <path id="Path_508" data-name="Path 508" d="M487,433c.671.337,10.622,6.278,14.388,6.192Z" transform="translate(-319.112 -280.361)" opacity="0.1"/>
    <path id="Path_509" data-name="Path 509" d="M464.768,318.527s-1.758,5.772-2.429,5.772c-.526,0-9.354-7.149-13.039-10.155l.161-.133a7.9,7.9,0,0,1,1.672-3.924C452.47,308.757,464.768,318.527,464.768,318.527Z" transform="translate(-296.205 -205.601)" opacity="0.1"/>
    <path id="Path_510" data-name="Path 510" d="M463.908,316.817s-1.754,5.772-2.425,5.772c-.53,0-9.358-7.149-13.043-10.155l.161-.133a7.918,7.918,0,0,1,1.675-3.924C451.614,307.047,463.908,316.817,463.908,316.817Z" transform="translate(-295.682 -204.562)" fill="#dce6f2"/>
    <g id="Group_31" data-name="Group 31" transform="translate(144.537 74.238)" opacity="0.15">
      <path id="Path_511" data-name="Path 511" d="M427.49,282.54h0c1.177,2.688,4.418,3.991,6.3,6.133C432.669,286.04,429.4,284.749,427.49,282.54Z" transform="translate(-427.49 -263.176)"/>
      <path id="Path_512" data-name="Path 512" d="M450.076,294.808a2.82,2.82,0,0,1-2.574,1.314,7.51,7.51,0,0,1-2.582-.659,5.018,5.018,0,0,1,.667,1.42,8.2,8.2,0,0,0,2.919.785,2.792,2.792,0,0,0,2.574-1.314c.75-1.432-.031-2.656-.946-3.814A2.492,2.492,0,0,1,450.076,294.808Z" transform="translate(-438.081 -269.252)"/>
      <path id="Path_513" data-name="Path 513" d="M468.409,239.08a13.462,13.462,0,0,0-1.036-2.056,12.824,12.824,0,0,1-.428-1.679,5.2,5.2,0,0,0-1.2-2.154,5.011,5.011,0,0,1,.2.592,13.5,13.5,0,0,0,.439,1.687,13.463,13.463,0,0,1,1.036,2.056,2.131,2.131,0,0,1-1.57,2.456c-1.452.318-3.108-.938-4.355-.129a3.134,3.134,0,0,0-1.044,2.417q-.263,2.354-.534,4.681a5.611,5.611,0,0,1-.345,1.609,4.042,4.042,0,0,1-3.849,2.052,2.311,2.311,0,0,1-1.656-.549,10.933,10.933,0,0,0-.718-.91c-1.962-1.648-2.558,2.382-2.04,3.531a7.107,7.107,0,0,0,.957,1.44c-.432-1.295.173-5.022,2.087-3.425a10.142,10.142,0,0,1,.714.91,2.327,2.327,0,0,0,1.66.549,4.042,4.042,0,0,0,3.849-2.052,5.61,5.61,0,0,0,.345-1.613q.267-2.354.534-4.677a3.144,3.144,0,0,1,1.04-2.417c1.252-.808,2.908.447,4.359.126A2.127,2.127,0,0,0,468.409,239.08Z" transform="translate(-441.853 -233.19)"/>
    </g>
    <path id="Path_514" data-name="Path 514" d="M679.576,269.176a3.033,3.033,0,0,1-1.26-.031,7.062,7.062,0,0,1-4.034-2.409,2.526,2.526,0,0,1-.671-2.456c.275-.663,1-1.079,1.177-1.77a2.629,2.629,0,0,0-.067-1.267l-.424-1.934c-.122-.549-.333-1.2-.879-1.326s-1,.318-1.428.655c-1.048.828-3.061,1.393-4.316.71s-.906-2.951-1.11-4.179a.734.734,0,0,0-.275-.549,1.118,1.118,0,0,0-.573-.043,1.642,1.642,0,0,1-1.42-1.26,11.152,11.152,0,0,1-.224-2.021,2.264,2.264,0,0,0-.906-1.746,2.821,2.821,0,0,0-1.479-.255l-2.911.031c-.718,0-1.57-.047-1.962-.643a1.954,1.954,0,0,1,.31-2.052,4.061,4.061,0,0,0,.969-1.962,3.69,3.69,0,0,0-.847-2.025,3.626,3.626,0,0,1-.494-1.122l-.836-.051a2.258,2.258,0,0,0,.392,2.1,3.744,3.744,0,0,1,.848,2.021,4.166,4.166,0,0,1-.969,1.962,1.921,1.921,0,0,0-.306,2.052,2.193,2.193,0,0,0,1.962.647l2.911-.035a2.817,2.817,0,0,1,1.479.259,2.253,2.253,0,0,1,.906,1.746,10.844,10.844,0,0,0,.228,2.021,1.624,1.624,0,0,0,1.42,1.256,1.149,1.149,0,0,1,.569.043.737.737,0,0,1,.275.553c.2,1.224-.173,3.5,1.11,4.179a4.452,4.452,0,0,0,4.316-.71c.428-.337.9-.785,1.432-.659s.757.785.875,1.326l.428,1.938a2.627,2.627,0,0,1,.063,1.267c-.2.687-.922,1.106-1.2,1.766a2.533,2.533,0,0,0,.671,2.456,7.062,7.062,0,0,0,4.061,2.409,3.033,3.033,0,0,0,1.26.031,2.958,2.958,0,0,0,1.632-1.24A2.183,2.183,0,0,1,679.576,269.176Z" transform="translate(-421.61 -163.983)" opacity="0.1"/>
    <ellipse id="Ellipse_399" data-name="Ellipse 399" cx="9.484" cy="1.456" rx="9.484" ry="1.456" transform="translate(68.471 275.571)" fill="#6c63ff" opacity="0.1"/>
    <ellipse id="Ellipse_400" data-name="Ellipse 400" cx="9.484" cy="1.456" rx="9.484" ry="1.456" transform="translate(399.607 237.722)" fill="#6c63ff" opacity="0.1"/>
    <ellipse id="Ellipse_404" data-name="Ellipse 404" cx="27.466" cy="4.214" rx="27.466" ry="4.214" transform="translate(9.897 313.439)" fill="#6c63ff" opacity="0.1"/>
    <path id="Path_515" data-name="Path 515" d="M254.314,631.85s1.075,1.4-.494,3.531-2.864,3.924-2.354,5.234c0,0,2.354-3.924,4.316-3.994S256.437,634.22,254.314,631.85Z" transform="translate(-175.928 -401.187)" fill="#6c63ff"/>
    <path id="Path_516" data-name="Path 516" d="M254.422,631.85a1.57,1.57,0,0,1,.22.439c1.883,2.213,2.884,4.273,1.075,4.316-1.683.047-3.7,3.061-4.187,3.822a1.455,1.455,0,0,0,.055.173s2.354-3.924,4.316-3.994S256.545,634.22,254.422,631.85Z" transform="translate(-176.036 -401.187)" opacity="0.1"/>
    <path id="Path_517" data-name="Path 517" d="M263.611,635.918c0,.494-.059.895-.126.895s-.126-.392-.126-.895.071-.259.137-.259S263.611,635.423,263.611,635.918Z" transform="translate(-183.224 -403.465)" fill="#ffd037"/>
    <path id="Path_518" data-name="Path 518" d="M264.43,637.391c-.432.235-.812.392-.844.318s.29-.3.726-.538.263-.063.294,0S264.866,637.152,264.43,637.391Z" transform="translate(-183.36 -404.346)" fill="#ffd037"/>
    <path id="Path_519" data-name="Path 519" d="M240.706,631.85s-1.075,1.4.494,3.531,2.868,3.924,2.354,5.234c0,0-2.354-3.924-4.3-3.994S238.571,634.22,240.706,631.85Z" transform="translate(-167.993 -401.187)" fill="#6c63ff"/>
    <path id="Path_520" data-name="Path 520" d="M240.692,631.85a1.73,1.73,0,0,0-.22.439c-1.883,2.213-2.884,4.273-1.075,4.316,1.683.047,3.7,3.061,4.191,3.822a1.485,1.485,0,0,1-.059.173s-2.354-3.924-4.3-3.994S238.558,634.22,240.692,631.85Z" transform="translate(-167.98 -401.187)" opacity="0.1"/>
    <path id="Path_521" data-name="Path 521" d="M239.35,635.918c0,.494.055.895.122.895s.126-.392.126-.895-.071-.259-.137-.259S239.35,635.423,239.35,635.918Z" transform="translate(-168.635 -403.465)" fill="#ffd037"/>
    <path id="Path_522" data-name="Path 522" d="M237.191,637.391c.436.235.812.392.848.318s-.294-.3-.73-.538-.263-.063-.294,0S236.756,637.152,237.191,637.391Z" transform="translate(-167.163 -404.346)" fill="#ffd037"/>
    <ellipse id="Ellipse_405" data-name="Ellipse 405" cx="11.234" cy="1.723" rx="11.234" ry="1.723" transform="translate(64.316 246.727)" fill="#6c63ff" opacity="0.1"/>
    <path id="Path_523" data-name="Path 523" d="M248.494,648.335l-.055.439-.075.62-.031.259-.075.62-.035.259-.075.62-.859,7.063c-.075.628-1.1,1.118-2.354,1.118h-4.45c-1.24,0-2.268-.49-2.354-1.118l-.859-7.063-.075-.62-.031-.259-.078-.62-.031-.259-.075-.62-.055-.439c-.043-.357.514-.655,1.216-.655h9.138C247.98,647.68,248.537,647.978,248.494,648.335Z" transform="translate(-167.161 -410.805)" fill="#65617d"/>
    <path id="Path_524" data-name="Path 524" d="M194.417,614.76l-.075.62H183.035l-.075-.62Z" transform="translate(-113.139 -376.791)" fill="#9d9cb5"/>
    <path id="Path_525" data-name="Path 525" d="M194.476,617l-.075.62H183.308l-.078-.62Z" transform="translate(-113.303 -378.152)" fill="#9d9cb5"/>
    <path id="Path_526" data-name="Path 526" d="M194.54,619.24l-.078.62H183.585l-.075-.62Z" transform="translate(-113.474 -379.513)" fill="#9d9cb5"/>
    <path id="Path_527" data-name="Path 527" d="M1082.47,618s-1.342,6.247,4.626,6.984l.369-.695S1082.839,619.938,1082.47,618Z" transform="translate(-680.855 -392.771)" fill="#6c63ff"/>
    <path id="Path_528" data-name="Path 528" d="M1092.213,619.36l-1.389.294-.137.031s-3.7-3.006-3.657-9.715a16.55,16.55,0,0,0,1.77,2.8C1090.266,614.71,1091.934,617.3,1092.213,619.36Z" transform="translate(-683.703 -387.892)" fill="#6c63ff"/>
    <path id="Path_529" data-name="Path 529" d="M1096.324,616.424a.871.871,0,0,1-.745.1c-3.563-.832-2.354-12.442-2.354-12.442.2.09.392,1.57,1.232,3.477C1095.889,610.9,1097.47,615.585,1096.324,616.424Z" transform="translate(-687.347 -384.313)" fill="#6c63ff"/>
    <path id="Path_530" data-name="Path 530" d="M1112.109,618s.231,6.247-5.737,6.984l-.373-.706S1111.74,619.938,1112.109,618Z" transform="translate(-695.23 -392.771)" fill="#6c63ff"/>
    <path id="Path_531" data-name="Path 531" d="M1107.47,610a11.553,11.553,0,0,1-4.764,9.715l-.141-.031-1.385-.294c.275-2.06,1.962-4.65,3.41-6.592A15.094,15.094,0,0,1,1107.47,610Z" transform="translate(-692.301 -387.91)" fill="#6c63ff"/>
    <path id="Path_532" data-name="Path 532" d="M1101.232,615.826a2.163,2.163,0,0,1-.785.608h0a1.516,1.516,0,0,1-.294.1c-.875.2-1.177-.428-1.13-1.5.082-1.911,1.283-5.226,2.354-7.71a9.637,9.637,0,0,1,2.236-3.229S1103.559,613.126,1101.232,615.826Z" transform="translate(-690.988 -384.319)" fill="#6c63ff"/>
    <path id="Path_533" data-name="Path 533" d="M1099.109,593.7s-3.979,14.126-.553,16.237S1099.988,594.948,1099.109,593.7Z" transform="translate(-689.862 -378.006)" fill="#6c63ff"/>
    <path id="Path_534" data-name="Path 534" d="M1082.47,618s-1.342,6.247,4.626,6.984l.369-.695S1082.839,619.938,1082.47,618Z" transform="translate(-680.855 -392.771)" opacity="0.1"/>
    <path id="Path_535" data-name="Path 535" d="M1092.213,619.36l-1.389.294-.137.031s-3.7-3.006-3.657-9.715a16.55,16.55,0,0,0,1.77,2.8C1090.266,614.71,1091.934,617.3,1092.213,619.36Z" transform="translate(-683.703 -387.892)" opacity="0.1"/>
    <path id="Path_536" data-name="Path 536" d="M1096.324,616.424a.871.871,0,0,1-.745.1c-3.563-.832-2.354-12.442-2.354-12.442.2.09.392,1.57,1.232,3.477C1095.889,610.9,1097.47,615.585,1096.324,616.424Z" transform="translate(-687.347 -384.313)" opacity="0.1"/>
    <path id="Path_537" data-name="Path 537" d="M1112.109,618s.231,6.247-5.737,6.984l-.373-.706S1111.74,619.938,1112.109,618Z" transform="translate(-695.23 -392.771)" opacity="0.1"/>
    <path id="Path_538" data-name="Path 538" d="M1107.47,610a11.553,11.553,0,0,1-4.764,9.715l-.141-.031-1.385-.294c.275-2.06,1.962-4.65,3.41-6.592A15.094,15.094,0,0,1,1107.47,610Z" transform="translate(-692.301 -387.91)" opacity="0.1"/>
    <path id="Path_539" data-name="Path 539" d="M1101.232,615.826a2.163,2.163,0,0,1-.785.608h0a1.516,1.516,0,0,1-.294.1c-.875.2-1.177-.428-1.13-1.5.082-1.911,1.283-5.226,2.354-7.71a9.637,9.637,0,0,1,2.236-3.229S1103.559,613.126,1101.232,615.826Z" transform="translate(-690.988 -384.319)" opacity="0.1"/>
    <path id="Path_540" data-name="Path 540" d="M1099.109,593.7s-3.979,14.126-.553,16.237S1099.988,594.948,1099.109,593.7Z" transform="translate(-689.862 -378.006)" opacity="0.1"/>
    <path id="Path_541" data-name="Path 541" d="M1082.617,618s-.785,6.247,5.179,6.984l.369-.695S1082.986,619.938,1082.617,618Z" transform="translate(-681.002 -392.771)" fill="#6c63ff"/>
    <path id="Path_542" data-name="Path 542" d="M1092.748,619.378l-1.389.294-.137.031s-4.257-3.006-4.222-9.7c0,0,1.091,1.177,2.323,2.8C1090.8,614.728,1092.469,617.318,1092.748,619.378Z" transform="translate(-683.685 -387.91)" fill="#6c63ff"/>
    <path id="Path_543" data-name="Path 543" d="M1096.364,623.692l-1.389.294c-1.314-1.154-1.836-4.167-2.025-6.886C1094.417,619.042,1096.085,621.632,1096.364,623.692Z" transform="translate(-687.301 -392.224)" opacity="0.1"/>
    <path id="Path_544" data-name="Path 544" d="M1097.108,616.424a.879.879,0,0,1-.749.1c-3.563-.832-2.911-12.442-2.911-12.442a16.119,16.119,0,0,1,1.785,3.477C1096.673,610.9,1098.25,615.585,1097.108,616.424Z" transform="translate(-687.575 -384.313)" fill="#6c63ff"/>
    <path id="Path_545" data-name="Path 545" d="M1112.978,618s.785,6.247-5.179,6.984l-.369-.695S1112.609,619.938,1112.978,618Z" transform="translate(-696.099 -392.771)" fill="#6c63ff"/>
    <path id="Path_546" data-name="Path 546" d="M1108.327,610c.047,6.71-4.21,9.715-4.21,9.715l-.137-.031-1.389-.294c.275-2.06,1.962-4.65,3.414-6.592C1107.236,611.177,1108.327,610,1108.327,610Z" transform="translate(-693.158 -387.91)" fill="#6c63ff"/>
    <path id="Path_547" data-name="Path 547" d="M1106,617.1c-.181,2.535-.644,5.325-1.77,6.627a2.025,2.025,0,0,1-.255.259l-1.389-.294C1102.865,621.632,1104.536,619.042,1106,617.1Z" transform="translate(-693.158 -392.224)" opacity="0.1"/>
    <path id="Path_548" data-name="Path 548" d="M1102.643,615.826a2.123,2.123,0,0,1-.785.608h0a1.563,1.563,0,0,1-.29.1c-.879.2-1.177-.428-1.134-1.5.086-1.911,1.287-5.226,2.354-7.71a15.088,15.088,0,0,1,1.683-3.229S1104.97,613.126,1102.643,615.826Z" transform="translate(-691.846 -384.319)" fill="#6c63ff"/>
    <path id="Path_549" data-name="Path 549" d="M1099.619,621.808a.942.942,0,0,1-.565-.18c-1.676-1.044-1.711-4.96-1.311-8.687C1099.183,616.287,1100.761,620.968,1099.619,621.808Z" transform="translate(-690.085 -389.697)" opacity="0.1"/>
    <path id="Path_550" data-name="Path 550" d="M1102.649,620.827c-.192.42-.451.64-.785.608h0a1.054,1.054,0,0,1-.475-.18,2.535,2.535,0,0,1-.95-1.224c.086-1.911,1.287-5.227,2.354-7.71C1103.179,615.761,1103.308,619.41,1102.649,620.827Z" transform="translate(-691.852 -389.32)" opacity="0.1"/>
    <path id="Path_551" data-name="Path 551" d="M1099.765,593.7s-3.422,14.126,0,16.237S1100.644,594.948,1099.765,593.7Z" transform="translate(-690.518 -378.006)" fill="#6c63ff"/>
    <path id="Path_552" data-name="Path 552" d="M1042.687,597.61H1028.44v2.358h2.174l.055.279.871,4.579h8.283l.871-4.579.051-.279h1.942Z" transform="translate(-626.871 -366.37)" fill="#4b4770"/>
    <path id="Path_553" data-name="Path 553" d="M1042.687,597.61H1028.44v2.358h2.174l.055.279.871,4.579h8.283l.871-4.579.051-.279h1.942Z" transform="translate(-626.871 -366.37)" opacity="0.1"/>
    <path id="Path_554" data-name="Path 554" d="M1045.424,601.14l-.239,1.252-.871,4.579h-8.283l-.871-4.579-.239-1.252Z" transform="translate(-630.809 -368.515)" fill="#4b4770"/>
    <path id="Path_555" data-name="Path 555" d="M1045.424,601.14l-.239,1.252h-10.025l-.239-1.252Z" transform="translate(-630.809 -368.515)" opacity="0.1"/>
    <rect id="Rectangle_573" data-name="Rectangle 573" width="14.247" height="2.358" transform="translate(402.122 231.24)" fill="#4b4770"/>
    <path id="Path_556" data-name="Path 556" d="M155.585,731.639a6.843,6.843,0,0,0-.895,1.687c-.055.145-.11.314-.165.475a1.707,1.707,0,0,0-.31-.11,4.313,4.313,0,0,0-1.4-.118c0-.184.024-.392.027-.577.059-2.068-.184-4.948-2.158-3.728-1.891,1.177-.541,3.139.679,4.395.106.11.212.212.314.31-1.114.785-1.326,2.641-1.511,4.567s-1.821,4.034-2.908,5.23c-.11.122-.208.232-.306.333a3.983,3.983,0,0,0-3.159-.812c-.043-.169-.094-.345-.145-.53-.879-3.174-2.7-8.672-5.03-9.876l.306-.392c.989-1.291,2.1-3.214.459-3.7s-1.793,1.664-1.7,3.28q.024.306.047.577a2.4,2.4,0,0,0-1.719.84l-.255-.3c-1.334-1.569-3.779-4.069-4.52-2.182-.691,1.758,1.464,4.042,2.978,5.364l.094.082c-1.016,4.124,3.422,7.487,5.811,8.958l.31.188c-3.3,3.885-5.332,11.167-5.332,11.167l9.229,1.648s6.121-5.281,5.336-10.241h.063c6.117-1.224,7.506-7.746,6.553-11.618l.11-.043a6.926,6.926,0,0,0,2.833-2.142C160.93,731.992,157.351,729.308,155.585,731.639Z" transform="translate(-102.861 -460.047)" fill="#6c63ff"/>
    <path id="Path_557" data-name="Path 557" d="M155.585,731.639a6.843,6.843,0,0,0-.895,1.687c-.055.145-.11.314-.165.475a1.707,1.707,0,0,0-.31-.11,4.313,4.313,0,0,0-1.4-.118c0-.184.024-.392.027-.577.059-2.068-.184-4.948-2.158-3.728-1.891,1.177-.541,3.139.679,4.395.106.11.212.212.314.31-1.114.785-1.326,2.641-1.511,4.567s-1.821,4.034-2.908,5.23c-.11.122-.208.232-.306.333a3.983,3.983,0,0,0-3.159-.812c-.043-.169-.094-.345-.145-.53-.879-3.174-2.7-8.672-5.03-9.876l.306-.392c.989-1.291,2.1-3.214.459-3.7s-1.793,1.664-1.7,3.28q.024.306.047.577a2.4,2.4,0,0,0-1.719.84l-.255-.3c-1.334-1.569-3.779-4.069-4.52-2.182-.691,1.758,1.464,4.042,2.978,5.364l.094.082c-1.016,4.124,3.422,7.487,5.811,8.958l.31.188c-3.3,3.885-5.332,11.167-5.332,11.167l9.229,1.648s6.121-5.281,5.336-10.241h.063c6.117-1.224,7.506-7.746,6.553-11.618l.11-.043a6.926,6.926,0,0,0,2.833-2.142C160.93,731.992,157.351,729.308,155.585,731.639Z" transform="translate(-102.861 -460.047)" opacity="0.1"/>
    <path id="Path_558" data-name="Path 558" d="M138.089,736.817l-1.079,3.139s-.6-.424-1.358-1.091c-1.515-1.322-3.669-3.606-2.978-5.364.742-1.887,3.186.6,4.52,2.182C137.732,736.311,138.089,736.817,138.089,736.817Z" transform="translate(-103.736 -462.541)" fill="#6c63ff"/>
    <path id="Path_559" data-name="Path 559" d="M150.524,732.507a14.96,14.96,0,0,1-1.052,1.24,16.564,16.564,0,0,1-.192-1.664c-.09-1.617.082-3.763,1.7-3.28S151.513,731.216,150.524,732.507Z" transform="translate(-113.895 -460.056)" fill="#6c63ff"/>
    <path id="Path_560" data-name="Path 560" d="M183.2,733.395c-.031,1.04-.133,1.872-.133,1.872a13.7,13.7,0,0,1-1.346-1.2c-1.22-1.267-2.57-3.221-.679-4.395C183,728.443,183.242,731.327,183.2,733.395Z" transform="translate(-132.636 -460.445)" fill="#6c63ff"/>
    <path id="Path_561" data-name="Path 561" d="M196.374,737.491a6.925,6.925,0,0,1-2.833,2.142,8.462,8.462,0,0,1-.95.345l-1.271-1.785a12.624,12.624,0,0,1,.526-1.734,6.844,6.844,0,0,1,.895-1.687C194.5,732.442,198.085,735.125,196.374,737.491Z" transform="translate(-139.451 -463.18)" fill="#6c63ff"/>
    <path id="Path_562" data-name="Path 562" d="M142.012,740.11c.538.628.895,1.114.895,1.114l-1.079,3.139s-.6-.424-1.358-1.091a6.161,6.161,0,0,1,1.216-2.774C141.792,740.369,141.906,740.236,142.012,740.11Z" transform="translate(-108.553 -466.968)" opacity="0.1"/>
    <path id="Path_563" data-name="Path 563" d="M150.554,737.694a14.946,14.946,0,0,1-1.052,1.24,16.557,16.557,0,0,1-.192-1.664A2.169,2.169,0,0,1,150.554,737.694Z" transform="translate(-113.924 -465.242)" opacity="0.1"/>
    <path id="Path_564" data-name="Path 564" d="M150.389,751.11l-2.684,1.177s-.585-.283-1.428-.808c-2.821-1.734-8.491-6.1-4.709-11.25s6.973,4.085,8.24,8.6C150.189,750.2,150.389,751.11,150.389,751.11Z" transform="translate(-108.455 -466.118)" fill="#6c63ff"/>
    <path id="Path_565" data-name="Path 565" d="M184.18,740.287a2.2,2.2,0,0,1,1.479-.667c-.031,1.04-.133,1.872-.133,1.872A13.718,13.718,0,0,1,184.18,740.287Z" transform="translate(-135.112 -466.67)" opacity="0.1"/>
    <path id="Path_566" data-name="Path 566" d="M193.561,743.634a8.46,8.46,0,0,1-.95.345l-1.271-1.785a12.623,12.623,0,0,1,.526-1.734A4.63,4.63,0,0,1,193.561,743.634Z" transform="translate(-139.463 -467.181)" opacity="0.1"/>
    <path id="Path_567" data-name="Path 567" d="M171.644,755.642c-.145.031-.3.059-.451.082-9,1.366-2.966-3.488-2.966-3.488s.392-.392.953-.985c1.087-1.2,2.719-3.292,2.908-5.23.283-2.915.608-5.65,4.049-4.85C179.515,741.964,180.162,753.935,171.644,755.642Z" transform="translate(-124.216 -467.527)" fill="#6c63ff"/>
    <rect id="Rectangle_574" data-name="Rectangle 574" width="17.19" height="4.52" transform="translate(30.069 310.516)" fill="#d4dfec"/>
    <rect id="Rectangle_575" data-name="Rectangle 575" width="22.46" height="15.774" transform="translate(27.338 295.825)" fill="#d4dfec"/>
    <rect id="Rectangle_576" data-name="Rectangle 576" width="17.19" height="4.52" transform="translate(30.069 310.516)" opacity="0.1"/>
    <rect id="Rectangle_577" data-name="Rectangle 577" width="22.46" height="15.774" transform="translate(27.338 295.825)" opacity="0.1"/>
    <rect id="Rectangle_578" data-name="Rectangle 578" width="17.19" height="4.52" transform="translate(31.199 310.516)" fill="#d4dfec"/>
    <path id="Path_568" data-name="Path 568" d="M159.051,764.51c.392,1.35.581,2.276.581,2.276l-2.684,1.177s-.585-.282-1.428-.808A6.89,6.89,0,0,1,159.051,764.51Z" transform="translate(-117.698 -481.794)" opacity="0.1"/>
    <path id="Path_569" data-name="Path 569" d="M171.644,771.471c-.145.031-.3.059-.451.082-9,1.365-2.966-3.488-2.966-3.488s.392-.392.953-.985A5.957,5.957,0,0,1,171.644,771.471Z" transform="translate(-124.216 -483.356)" opacity="0.1"/>
    <path id="Path_570" data-name="Path 570" d="M142.72,779.22s5.038-18.049,12.1-12.482-2.876,14.126-2.876,14.126Z" transform="translate(-109.92 -482.5)" fill="#6c63ff"/>
    <circle id="Ellipse_406" data-name="Ellipse 406" cx="0.565" cy="0.565" r="0.565" transform="translate(34.777 276.375)" opacity="0.1"/>
    <circle id="Ellipse_407" data-name="Ellipse 407" cx="0.565" cy="0.565" r="0.565" transform="translate(34.73 279.012)" opacity="0.1"/>
    <circle id="Ellipse_408" data-name="Ellipse 408" cx="0.565" cy="0.565" r="0.565" transform="translate(51.12 276.893)" opacity="0.1"/>
    <circle id="Ellipse_409" data-name="Ellipse 409" cx="0.565" cy="0.565" r="0.565" transform="translate(37.936 290.411)" opacity="0.1"/>
    <circle id="Ellipse_410" data-name="Ellipse 410" cx="0.565" cy="0.565" r="0.565" transform="translate(49.943 281.272)" opacity="0.1"/>
    <circle id="Ellipse_411" data-name="Ellipse 411" cx="0.565" cy="0.565" r="0.565" transform="translate(44.104 287.115)" opacity="0.1"/>
    <circle id="Ellipse_412" data-name="Ellipse 412" cx="0.565" cy="0.565" r="0.565" transform="translate(36.708 277.505)" opacity="0.1"/>
    <circle id="Ellipse_413" data-name="Ellipse 413" cx="0.565" cy="0.565" r="0.565" transform="translate(49.566 278.588)" opacity="0.1"/>
    <circle id="Ellipse_414" data-name="Ellipse 414" cx="0.565" cy="0.565" r="0.565" transform="translate(47.636 282.967)" opacity="0.1"/>
    <circle id="Ellipse_415" data-name="Ellipse 415" cx="0.565" cy="0.565" r="0.565" transform="translate(41.703 289.987)" opacity="0.1"/>
    <circle id="Ellipse_416" data-name="Ellipse 416" cx="0.565" cy="0.565" r="0.565" transform="translate(40.479 287.209)" opacity="0.1"/>
    <circle id="Ellipse_417" data-name="Ellipse 417" cx="0.565" cy="0.565" r="0.565" transform="translate(37.555 280.943)" opacity="0.1"/>
    <rect id="Rectangle_579" data-name="Rectangle 579" width="17.19" height="1.652" transform="translate(31.199 310.516)" opacity="0.1"/>
    <rect id="Rectangle_580" data-name="Rectangle 580" width="22.46" height="15.774" transform="translate(28.468 295.825)" fill="#d4dfec"/>
    <circle id="Ellipse_418" data-name="Ellipse 418" cx="0.565" cy="0.565" r="0.565" transform="translate(42.456 292.529)" opacity="0.1"/>
    <circle id="Ellipse_419" data-name="Ellipse 419" cx="0.565" cy="0.565" r="0.565" transform="translate(39.066 293.236)" opacity="0.1"/>
    <path id="Path_571" data-name="Path 571" d="M8.209,3.694A4.1,4.1,0,1,1,0,3.694C0,1.427,8.209,1.427,8.209,3.694Z" transform="translate(13.546 13.461)" fill="#6c63ff" opacity="0.1"/>
  </g>
</svg>
