<svg xmlns="http://www.w3.org/2000/svg" width="409.628" height="242.378" viewBox="0 0 409.628 242.378">
  <g id="Group_33" data-name="Group 33" transform="translate(66.067)">
    <rect id="Rectangle_581" data-name="Rectangle 581" width="409.628" height="3.198" transform="translate(-66.067 211.993)" fill="#3f3d56"/>
    <rect id="Rectangle_582" data-name="Rectangle 582" width="409.628" height="3.198" transform="translate(-66.067 239.18)" fill="#3f3d56"/>
    <path id="Path_572" data-name="Path 572" d="M920.682,362.721c.173-.283,4.261-7.109,5.678-21.282,1.3-13,.464-34.921-10.9-65.494-21.534-57.919,4.963-104.652,5.233-105.117l-1.307-.758c-.069.118-6.906,12.033-10.945,31.006a135.267,135.267,0,0,0,5.6,75.4c21.5,57.82,5.515,85.192,5.351,85.462Z" transform="translate(-900.573 -147.785)" fill="#3f3d56"/>
    <circle id="Ellipse_420" data-name="Ellipse 420" cx="9.821" cy="9.821" r="9.821" transform="translate(18.709 0)" fill="#3f3d56"/>
    <circle id="Ellipse_421" data-name="Ellipse 421" cx="9.821" cy="9.821" r="9.821" transform="translate(-12.263 36.26)" fill="#3f3d56"/>
    <circle id="Ellipse_422" data-name="Ellipse 422" cx="9.821" cy="9.821" r="9.821" transform="translate(8.889 60.434)" fill="#6c63ff"/>
    <circle id="Ellipse_423" data-name="Ellipse 423" cx="9.821" cy="9.821" r="9.821" transform="translate(-16.796 80.831)" fill="#6c63ff"/>
    <circle id="Ellipse_424" data-name="Ellipse 424" cx="9.821" cy="9.821" r="9.821" transform="translate(16.443 112.559)" fill="#3f3d56"/>
    <path id="Path_573" data-name="Path 573" d="M954.848,638.923s9.82-24.174-19.641-42.3Z" transform="translate(-940.671 -423.626)" fill="#3f3d56"/>
    <path id="Path_574" data-name="Path 574" d="M794.914,668.46s4.469-25.707,39.062-25.486Z" transform="translate(-768.659 -453.602)" fill="#3f3d56"/>
    <circle id="Ellipse_425" data-name="Ellipse 425" cx="14.486" cy="14.486" r="14.486" transform="translate(222.449 122.426)" fill="#a0616a"/>
    <path id="Path_575" data-name="Path 575" d="M266.981,442.531a14.7,14.7,0,0,1,8.433.173,14.352,14.352,0,0,1,6.713,5.492,34.452,34.452,0,0,1,3.8,7.923,27.717,27.717,0,0,1,1.358,4.643,15.9,15.9,0,0,1-2.886,12.128c.424-1.118-.644-2.338-1.815-2.58a7.754,7.754,0,0,0-3.52.478,21.752,21.752,0,0,1-6.247.734,4.351,4.351,0,0,1-2.324-.553c-2.1-1.406-.99-5.04-2.74-6.866a8.087,8.087,0,0,0-2.32-1.366,12.056,12.056,0,0,1-5.708-7.566c-.565-1.957-1.967-7.579-.772-9.4C260.037,444.129,265.147,442.982,266.981,442.531Z" transform="translate(-32.67 -323.637)" fill="#2f2e41"/>
    <path id="Path_576" data-name="Path 576" d="M343.789,448.4a8.62,8.62,0,0,1,6.6.368c3.779,1.772,10.461,6.065,10.207,14.192a46.941,46.941,0,0,1-4.24,18.726l.707,22.966,3.533,41.692s17.313,14.133,10.6,17.666-18.019-16.959-18.019-16.959l-8.833-23.673-3.18-22.966s-5.3-24.026,0-34.625C341.162,465.786,335.04,451.593,343.789,448.4Z" transform="translate(-146.272 -327.461)" fill="#a0616a"/>
    <path id="Path_577" data-name="Path 577" d="M613.925,552.5s6.006,25.439-15.193,32.505-49.112,19.079-49.112,19.079l-3.533,6.006-8.126-10.953,1.413-8.48,13.779-3.887s25.792-19.786,37.1-21.2L588.839,552.5Z" transform="translate(-458.607 -395.095)" fill="#a0616a"/>
    <path id="Path_578" data-name="Path 578" d="M709.318,494.717l-7.488,12.29s-24.733,14.133-31.092,23.673-21.553,19.786-21.553,19.786l6.713,15.9s19.079-22.259,27.206-24.379,44.165-31.092,44.165-31.092Z" transform="translate(-610.463 -357.728)" fill="#a0616a"/>
    <path id="Path_579" data-name="Path 579" d="M360.342,367.374c2.758.433,5.518.867,8.243,1.475a100.908,100.908,0,0,1,18.361,6.351A214.959,214.959,0,0,1,411.13,387.66a46.724,46.724,0,0,1,6,4.071,10.927,10.927,0,0,1,3.116,3.74,11.805,11.805,0,0,1,.823,3.258,29.115,29.115,0,0,1-.542,11.8,18.257,18.257,0,0,1-6.4,9.778,10.555,10.555,0,0,1-2.77,1.536,16.139,16.139,0,0,1-4.125.692c-4.458.354-9.115.679-13.24-1.047-2.622-1.1-4.841-2.952-7.253-4.454-10.215-6.363-23.194-6.092-34.364-10.572a7.314,7.314,0,0,1-2.951-1.833,7.978,7.978,0,0,1-1.279-2.54L343.9,390.367c-.895-2.477-1.79-4.955-2.541-7.479-.786-2.64-1.412-5.324-2.037-8.007a23,23,0,0,1-.886-7.112c.305-3.52,1.119-3.663,4.352-3.153Q351.564,366,360.342,367.374Z" transform="translate(-194.802 -273.454)" fill="#6c63ff"/>
    <path id="Path_580" data-name="Path 580" d="M313.789,448.4a8.619,8.619,0,0,1,6.6.368c3.779,1.772,10.461,6.065,10.207,14.192a46.941,46.941,0,0,1-4.24,18.726l.707,22.966,3.533,41.692s17.313,14.133,10.6,17.666-18.019-16.959-18.019-16.959l-8.833-23.673-3.18-22.966s-5.3-24.026,0-34.625C311.162,465.786,305.04,451.593,313.789,448.4Z" transform="translate(-105.673 -327.461)" fill="#a0616a"/>
    <path id="Path_581" data-name="Path 581" d="M564.747,364.278s-31.389-2.842-29.976,16.591,12.013,53,12.013,53l27.206,1.413s3.533-22.966-1.413-30.739Z" transform="translate(-417.966 -273.282)" fill="#2f2e41"/>
    <path id="Path_582" data-name="Path 582" d="M634.157,382.5a35.378,35.378,0,0,0-12.013,14.84c-4.24,9.893-16.959,29.326-16.959,29.326l20.846,14.84,15.546-15.9Z" transform="translate(-509.225 -285.16)" fill="#2f2e41"/>
    <path id="Path_583" data-name="Path 583" d="M738.63,667.339s6.713,2.473,2.12,7.42a44.733,44.733,0,0,0-7.066,10.246s1.413,9.186-4.593,8.833-8.48-12.72-7.066-16.959S725.2,652.5,725.2,652.5s12.366,1.06,12.013,2.827S735.1,665.926,738.63,667.339Z" transform="translate(-651.15 -459.763)" fill="#2f2e41"/>
    <path id="Path_584" data-name="Path 584" d="M852.687,653.16s6.36,3.18,4.593,6.006-7.42,10.953-7.42,10.953,2.12,10.6-3.886,11.66-9.54-12.72-8.48-15.546,1.06-13.78,1.06-13.78-.353-10.953,3.18-10.953a55.564,55.564,0,0,1,9.54,1.413S849.86,652.806,852.687,653.16Z" transform="translate(-807.252 -452.65)" fill="#2f2e41"/>
    <rect id="Rectangle_583" data-name="Rectangle 583" width="10.246" height="17.882" transform="translate(240.998 218.307)" fill="#6c63ff"/>
  </g>
</svg>
