<svg xmlns="http://www.w3.org/2000/svg" width="599.411" height="327.069" viewBox="0 0 599.411 327.069">
  <g id="Group_54" data-name="Group 54" transform="translate(0 -0.035)">
    <path id="Path_718" data-name="Path 718" d="M618.06,439.726a98.279,98.279,0,0,1-8.553,16.45,70.776,70.776,0,0,1-5.181,7.125.362.362,0,0,1-.057.063H25l.078-.062c.521-.407,3.581-2.882,8.34-7.125,3.414-3.039,7.7-6.99,12.51-11.743,39.348-38.7,114.931-130.307,51.982-214.225C39.391,152.2,102.4,138.039,143.96,136.386a118.741,118.741,0,0,1,46.838,7.657c19.2,7.3,54.3,18.483,100.019,23.612,1.5.167,3.013.334,4.545.485a437.89,437.89,0,0,0,72.857,1.324h0c.714-.042,1.433-.094,2.158-.146a432.938,432.938,0,0,0,71.263-11.024c1.517-.37,3.013-.719,4.5-1.069,77.992-18.045,149.89,43.455,131.913,112.956-6.646,25.707-4.957,53.108,17.2,75.276C631.534,381.64,627.14,417.277,618.06,439.726Z" transform="translate(-25 -136.26)" fill="#6c63ff" opacity="0.1"/>
    <path id="Path_719" data-name="Path 719" d="M618.132,710.378a98.277,98.277,0,0,1-8.553,16.45,70.773,70.773,0,0,1-5.181,7.125H25.15c.521-.407,3.581-2.882,8.34-7.125,3.414-3.039,7.7-6.99,12.51-11.743l61.052-12.614a11.877,11.877,0,0,1,2.4-.245l65.086-.094h.068l32.238-.042h.073l27.208-.031h36.053l74.755-.1h32.165l12.838-.146h4.243l37.341-.052h17.659l43.132-.057H505.15L546,701.642l34.484-.042a12.227,12.227,0,0,1,2.851.339Z" transform="translate(-25.072 -406.911)" fill="#454b69"/>
    <path id="Path_720" data-name="Path 720" d="M33.49,750H609.578a70.8,70.8,0,0,1-5.181,7.125H25.15C25.661,756.693,28.72,754.217,33.49,750Z" transform="translate(-25.072 -430.084)" fill="none"/>
    <path id="Path_721" data-name="Path 721" d="M33.49,750H609.578a70.8,70.8,0,0,1-5.181,7.125H25.15C25.661,756.693,28.72,754.217,33.49,750Z" transform="translate(-25.072 -430.084)" opacity="0.4"/>
    <path id="Path_722" data-name="Path 722" d="M621.308,301.43l-1.157.224L567.84,311.7c-15.194,2.919-30.607,5.853-46.04,4.733-11.18-.813-21.626-4.128-32.368-7.037-6.072-1.647-12.51-2.3-14.568-9.1-2.841-9.382,1.783-23.273,2.872-32.78,1.042-9.33,1.658-18.895-.2-28.115a49.984,49.984,0,0,0-1.626-6.119c-1.861-5.52-4.785-11.259-3.206-16.862,1.246-4.446,5.046-7.62,8.6-10.56,6.964-5.734,14.073-12.16,16.836-20.755,1.355-4.17,1.611-8.658,3.07-12.8,2.768-7.871,9.721-13.755,17.456-16.872s16.242-3.779,24.586-3.779a166.558,166.558,0,0,1,22.023,1.463c7.974,1.044,16.011,2.758,23.011,6.709s12.9,10.425,14.532,18.316c2.309,11.16-4.1,23.044-.662,33.88,1.73,5.478,5.734,9.9,8.512,14.918a35.532,35.532,0,0,1,2.606,27.625c-3.325,10.3-11.467,20.729-7.3,30.721,2.653,6.354,9.429,9.747,14.151,14.782Q620.76,300.752,621.308,301.43Z" transform="translate(-239.132 -143.616)" fill="#454b69"/>
    <path id="Path_723" data-name="Path 723" d="M621.712,358.211v1.538L569.4,369.8c-15.194,2.919-30.607,5.853-46.04,4.733-11.18-.813-21.626-4.128-32.368-7.037-6.072-1.647-12.51-2.3-14.568-9.1-2.841-9.382,1.783-23.273,2.872-32.78,1.042-9.33,17.091-43.392,15.236-52.613l95.906,4.17c.646,5.092,25.994,30.653,24.414,35.537-3.325,10.3-11.467,20.729-7.3,30.721C610.214,349.782,616.99,353.175,621.712,358.211Z" transform="translate(-240.694 -201.71)" opacity="0.1"/>
    <path id="Path_724" data-name="Path 724" d="M539.371,358.848c.568,3.226.87,6.776-.777,9.591-2.194,3.774-6.979,4.978-11.259,5.833l-14.855,2.971a5.765,5.765,0,0,0-2.841,1.126,4.968,4.968,0,0,0-1.324,3.247c-.6,5.379,1.3,10.68,3.039,15.8,3.508,10.378,6.453,20.974,10.888,30.987s10.524,19.572,19.213,26.265,20.187,10.258,30.826,7.641c9.267-2.278,16.867-8.819,23.419-15.757,5.405-5.734,10.461-11.988,13.083-19.426,1.809-5.108,2.4-10.55,2.966-15.939l2.637-24.79c.412-3.878.683-8.241-1.835-11.217a13.361,13.361,0,0,0-4.139-2.987c-5.7-3.028-11.707-5.53-17.013-9.179s-10.013-8.673-11.623-14.907c-.964-3.742-.792-7.818-2.434-11.305-1.835-3.909-5.734-6.557-9.9-7.719a33.778,33.778,0,0,0-12.864-.521c-4.295.485-20.849,1.725-22.627,6.568-.954,2.606,3,8.2,3.94,10.763A75.14,75.14,0,0,1,539.371,358.848Z" transform="translate(-256.344 -228.138)" fill="#efb7b9"/>
    <path id="Path_725" data-name="Path 725" d="M539.371,358.848c.568,3.226.87,6.776-.777,9.591-2.194,3.774-6.979,4.978-11.259,5.833l-14.855,2.971a5.765,5.765,0,0,0-2.841,1.126,4.968,4.968,0,0,0-1.324,3.247c-.6,5.379,1.3,10.68,3.039,15.8,3.508,10.378,6.453,20.974,10.888,30.987s10.524,19.572,19.213,26.265,20.187,10.258,30.826,7.641c9.267-2.278,16.867-8.819,23.419-15.757,5.405-5.734,10.461-11.988,13.083-19.426,1.809-5.108,2.4-10.55,2.966-15.939l2.637-24.79c.412-3.878.683-8.241-1.835-11.217a13.361,13.361,0,0,0-4.139-2.987c-5.7-3.028-11.707-5.53-17.013-9.179s-10.013-8.673-11.623-14.907c-.964-3.742-.792-7.818-2.434-11.305-1.835-3.909-5.734-6.557-9.9-7.719a33.778,33.778,0,0,0-12.864-.521c-4.295.485-20.849,1.725-22.627,6.568-.954,2.606,3,8.2,3.94,10.763A75.14,75.14,0,0,1,539.371,358.848Z" transform="translate(-256.344 -228.138)" opacity="0.1"/>
    <path id="Path_726" data-name="Path 726" d="M568.9,448.741l8.71-18.441c4.081-8.642,8.251-17.722,7.818-27.266-.083-1.9-.1-4.269,1.564-5.129a4.472,4.472,0,0,1,2.288-.292,92.566,92.566,0,0,1,26.849,5.431,10.652,10.652,0,0,1,4.561,2.637,10.886,10.886,0,0,1,2.048,4.847,141.536,141.536,0,0,1,2.987,17.654c1.564,14.709.787,29.548,0,44.3l-2.314,45.05a4.3,4.3,0,0,1-.381,1.856c-.573,1.042-1.866,1.392-3.028,1.59a65.754,65.754,0,0,1-13.588.438c-31.9-1.209-63.965-3.065-95.656.8q.214-7.031-.224-14.073c-1.256-20.271-6.51-40.046-11.67-59.686-3.008-11.467-5.921-23.977-1.079-34.782a14.9,14.9,0,0,1,3.018-4.6,17.149,17.149,0,0,1,7.652-3.841,48.7,48.7,0,0,1,14.746-1.668l32.863,71.549c1.5,3.273,2.736,6.719,4.232,9.95,1.345-5.582-.271-12.124,1.345-18.175A114.459,114.459,0,0,1,568.9,448.741Z" transform="translate(-250.117 -261.352)" fill="#fff"/>
    <path id="Path_727" data-name="Path 727" d="M530.923,496.842c5.879.37,11.592-2.643,15.637-6.9s6.714-9.658,8.97-15.116a149.063,149.063,0,0,0,7.709-24.034c1.564-6.984,2.674-14.214,1.595-21.292-1.491-9.773-7.021-18.655-7.964-28.5-.162-1.72-.057-3.732,1.324-4.769a5.5,5.5,0,0,1,3.044-.792c9.83-.584,20.63-.474,28.245,5.765,2.319,1.9,4.2,4.269,6.469,6.223,5.4,4.691,13.031,7.078,16.5,13.307a46.166,46.166,0,0,1,2.632,6.958c1.991,5.525,5.436,10.383,8.861,15.163-3.32,14.011-7.136,28.032-10.456,42.042-1.944,8.22-3.9,16.471-6.958,24.341-2,5.16-4.519,10.425-3.9,15.95a36.417,36.417,0,0,0,1.6,6.349,72.975,72.975,0,0,1,3.07,22.689l-148.728.365c7.125-10.216,9.215-22.746,8.491-35.178a38.439,38.439,0,0,0-4.691-17.107c-4.722-8.079-13.031-13.343-21.219-17.852-5.734-3.127-11.889,14.469-18.087,12.452,1-7.078,1.459-34.4,1.042-41.526-.135-2.335-.344-4.733.375-6.964.49-1.527,1.392-2.893,2-4.378,2.445-5.947.115-13.552,4.066-18.613,2.731-3.518,7.521-4.519,11.415-6.687,4-2.231,7.089-5.734,10.571-8.725a47.009,47.009,0,0,1,24.06-10.743,30.3,30.3,0,0,1,4.592,13.552c.266,3.028.073,6.1.5,9.111.579,4.081,2.267,7.912,3.941,11.686,6.969,15.736,13.964,31.519,22.793,46.3,2.5,4.17,5.212,8.34,8.83,11.587S526.065,497.071,530.923,496.842Z" transform="translate(-215.579 -260.223)" fill="#6c63ff"/>
    <path id="Path_728" data-name="Path 728" d="M530.923,496.842c5.879.37,11.592-2.643,15.637-6.9s6.714-9.658,8.97-15.116a149.063,149.063,0,0,0,7.709-24.034c1.564-6.984,2.674-14.214,1.595-21.292-1.491-9.773-7.021-18.655-7.964-28.5-.162-1.72-.057-3.732,1.324-4.769a5.5,5.5,0,0,1,3.044-.792c9.83-.584,20.63-.474,28.245,5.765,2.319,1.9,4.2,4.269,6.469,6.223,5.4,4.691,13.031,7.078,16.5,13.307a46.166,46.166,0,0,1,2.632,6.958c1.991,5.525,5.436,10.383,8.861,15.163-3.32,14.011-7.136,28.032-10.456,42.042-1.944,8.22-3.9,16.471-6.958,24.341-2,5.16-4.519,10.425-3.9,15.95a36.417,36.417,0,0,0,1.6,6.349,72.975,72.975,0,0,1,3.07,22.689l-148.728.365c7.125-10.216,9.215-22.746,8.491-35.178a38.439,38.439,0,0,0-4.691-17.107c-4.722-8.079-13.031-13.343-21.219-17.852-5.734-3.127-11.889,14.469-18.087,12.452,1-7.078,1.459-34.4,1.042-41.526-.135-2.335-.344-4.733.375-6.964.49-1.527,1.392-2.893,2-4.378,2.445-5.947.115-13.552,4.066-18.613,2.731-3.518,7.521-4.519,11.415-6.687,4-2.231,7.089-5.734,10.571-8.725a47.009,47.009,0,0,1,24.06-10.743,30.3,30.3,0,0,1,4.592,13.552c.266,3.028.073,6.1.5,9.111.579,4.081,2.267,7.912,3.941,11.686,6.969,15.736,13.964,31.519,22.793,46.3,2.5,4.17,5.212,8.34,8.83,11.587S526.065,497.071,530.923,496.842Z" transform="translate(-215.579 -260.223)" opacity="0.1"/>
    <circle id="Ellipse_446" data-name="Ellipse 446" cx="44.68" cy="44.68" r="44.68" transform="translate(262.799 40.167)" fill="#efb7b9"/>
    <path id="Path_729" data-name="Path 729" d="M537.413,298.235c1.225-11.561-3.581-22.872-9.022-33.145-2.606-4.91-5.4-9.8-6.708-15.2s-.933-11.5,2.413-15.939c2.846-3.774,7.36-5.812,11.535-8.027,11.785-6.255,22.559-15.449,27.74-27.745-2.929,1.595-2.168,6.354.417,8.454s6.109,2.507,9.288,3.508c11.592,3.649,18.545,15.209,24.122,26.009a12.431,12.431,0,0,1,1.83,5.608,11.378,11.378,0,0,1-1.866,5.436c-2.752,4.9-6.119,9.606-7.37,15.084-1.433,6.255.078,12.833,2.043,18.968,2.085,6.526,4.853,13.1,9.856,17.784s12.765,7.005,18.921,3.982c-6.145-10.565-12.51-22.371-10.112-34.349,1.157-5.734,4.269-10.946,5.593-16.648,2.523-10.878-1.678-22.069-5.8-32.452L597.97,188.579c-1.882-4.738-4.024-9.794-8.34-12.478-2.919-1.809-6.453-2.278-9.872-2.606-11.008-.98-22.413-.657-32.66,3.44-18.67,7.459-30.377,25.848-39.665,43.684-2.783,5.343-5.53,11.019-5.416,17.044.063,3.3.985,6.521,1.736,9.742,3.054,13.114,3.221,26.7,3.378,40.166.12,10.331-.417,20.067-4.936,29.475,6.192,1.23,15.173,4.55,21.3,2.121C531.487,316.009,536.407,306.277,537.413,298.235Z" transform="translate(-253.38 -153.848)" fill="#454b69"/>
    <g id="Group_50" data-name="Group 50" transform="translate(248.608 43.508)" opacity="0.1">
      <path id="Path_730" data-name="Path 730" d="M507.081,344.253q.031-2.2,0-4.451c-.156-13.463-.323-27.052-3.378-40.166a67.785,67.785,0,0,1-1.595-7.756,20.271,20.271,0,0,0-.141,2.705c.063,3.3.985,6.521,1.736,9.742C506.742,317.363,506.93,330.868,507.081,344.253Z" transform="translate(-501.966 -254.258)"/>
      <path id="Path_731" data-name="Path 731" d="M715.266,316.038a31.541,31.541,0,0,0,.678-9.288,28.961,28.961,0,0,1-.678,4.6c-1.324,5.734-4.436,10.9-5.593,16.648a27.625,27.625,0,0,0-.417,7.7,27.32,27.32,0,0,1,.417-3.013C710.83,326.937,713.942,321.751,715.266,316.038Z" transform="translate(-601.161 -261.377)"/>
      <path id="Path_732" data-name="Path 732" d="M616.046,261.711a7.512,7.512,0,0,0,.407-2.3,12.558,12.558,0,0,0-1.83-5.608c-5.577-10.8-12.509-22.35-24.122-26.009-3.18-1-6.7-1.407-9.288-3.508a6.609,6.609,0,0,1-2.283-4.587c-5.65,10.372-15.355,18.306-25.874,23.878-4.17,2.215-8.689,4.253-11.535,8.027-2.674,3.544-3.451,8.157-2.987,12.619a15.954,15.954,0,0,1,2.987-7.928c2.846-3.774,7.36-5.812,11.535-8.027,10.518-5.572,20.224-13.505,25.874-23.878a6.609,6.609,0,0,0,2.283,4.587c2.606,2.085,6.109,2.507,9.288,3.508,11.592,3.649,18.545,15.209,24.122,26.009a20.531,20.531,0,0,1,1.423,3.216Z" transform="translate(-519.413 -219.7)"/>
      <path id="Path_733" data-name="Path 733" d="M681.806,379.04c-5-4.691-7.761-11.259-9.856-17.784a51.482,51.482,0,0,1-2.5-11.316c-.485,5.353.844,10.831,2.5,16.007,2.085,6.526,4.853,13.1,9.856,17.784s12.765,7.005,18.921,3.982c-.74-1.267-1.475-2.554-2.2-3.852C692.8,385.472,686.236,383.179,681.806,379.04Z" transform="translate(-582.103 -282.055)"/>
      <path id="Path_734" data-name="Path 734" d="M537.56,402.986c-1.006,8.043-5.926,17.774-13.938,20.953-5.562,2.2-13.479-.328-19.52-1.73a45.153,45.153,0,0,1-1.783,4.3c6.192,1.23,15.173,4.55,21.3,2.121,8.011-3.18,12.932-12.911,13.938-20.953a36.213,36.213,0,0,0,.115-6.057C537.644,402.073,537.6,402.532,537.56,402.986Z" transform="translate(-502.135 -306.798)"/>
    </g>
    <path id="Path_735" data-name="Path 735" d="M657.189,649.756c-8.053-1.277-16.226-3.742-24.211-2.085a33.656,33.656,0,0,0-12.708,6.046c2.116,1.694,4.587,3.206,5.932,5.561a21.89,21.89,0,0,1,1.866,5.145,43.772,43.772,0,0,1,1.824,9.57,14.566,14.566,0,0,1-2.46,9.262c10.154,1,19.994-1.5,29.9-3.946a8.189,8.189,0,0,0,3.164-1.277c1.564-1.23,2.022-3.419,2.033-5.416a37.082,37.082,0,0,0-2.017-10.461C659.3,658.054,658.4,653.832,657.189,649.756Z" transform="translate(-309.998 -380.826)" fill="#fff"/>
    <path id="Path_736" data-name="Path 736" d="M739.1,483.2c4,.521,7.1,3.748,9.382,7.063,6.406,9.226,9.168,20.411,12.244,31.216a415.47,415.47,0,0,0,13.484,39.676,59.715,59.715,0,0,0,4.045,8.7c1.287,2.153,2.851,4.222,3.419,6.666,1.376,5.911-3.5,11.467-8.579,14.761a33.954,33.954,0,0,1-8.783,4.232,52.312,52.312,0,0,1-9.34,1.595l-28.933,3.127c-13.317,1.449-26.755,2.9-40.077,1.5-.839-2.919.808-4.983.688-8.022a17.917,17.917,0,0,0-1.9-6.2,39.607,39.607,0,0,1-3.091-11.212,15.2,15.2,0,0,0-.745-4.206,3.943,3.943,0,0,0-3.127-2.606c7.818-.777,13.755-2.252,21.574-3.034,2.9-.292,5.921-.62,8.4-2.163,3.07-1.913,4.79-5.363,6.156-8.71,3.383-8.288,5.562-17.419,3.784-26.2-1.459-7.2-5.53-13.9-5.509-21.245,0-4.373,1.491-8.611,3.252-12.614,1.866-4.232,4.3-8.559,8.4-10.706S734.479,482.579,739.1,483.2Z" transform="translate(-337.537 -302.191)" fill="#6c63ff"/>
    <path id="Path_737" data-name="Path 737" d="M739.1,483.2c4,.521,7.1,3.748,9.382,7.063,6.406,9.226,9.168,20.411,12.244,31.216a415.47,415.47,0,0,0,13.484,39.676,59.715,59.715,0,0,0,4.045,8.7c1.287,2.153,2.851,4.222,3.419,6.666,1.376,5.911-3.5,11.467-8.579,14.761a33.954,33.954,0,0,1-8.783,4.232,52.312,52.312,0,0,1-9.34,1.595l-28.933,3.127c-13.317,1.449-26.755,2.9-40.077,1.5-.839-2.919.808-4.983.688-8.022a17.917,17.917,0,0,0-1.9-6.2,39.607,39.607,0,0,1-3.091-11.212,15.2,15.2,0,0,0-.745-4.206,3.943,3.943,0,0,0-3.127-2.606c7.818-.777,13.755-2.252,21.574-3.034,2.9-.292,5.921-.62,8.4-2.163,3.07-1.913,4.79-5.363,6.156-8.71,3.383-8.288,5.562-17.419,3.784-26.2-1.459-7.2-5.53-13.9-5.509-21.245,0-4.373,1.491-8.611,3.252-12.614,1.866-4.232,4.3-8.559,8.4-10.706S734.479,482.579,739.1,483.2Z" transform="translate(-337.537 -302.191)" opacity="0.08"/>
    <path id="Path_738" data-name="Path 738" d="M444.2,396.334c1.892-4.493,3.815-9.132,3.868-14.005.057-5.27-2.085-10.273-3.722-15.277a88.341,88.341,0,0,1-4.019-18.863,2.606,2.606,0,0,1,.261-1.809,3.107,3.107,0,0,1,2-.9c3.607-.824,6.333-3.737,8.585-6.672a73.151,73.151,0,0,0,8.788-14.678c1.725-3.841,4.06-8.527,8.272-8.564a238.913,238.913,0,0,1-6.3,23.586c4.4-1.126,8.59-2.763,12.994-3.888a7.782,7.782,0,0,1,2.669-.354,4.028,4.028,0,0,1,2.721,6.01c2.153,2.523,5.734,3.2,8.548,4.931s4.837,6.015,2.335,8.188a6.979,6.979,0,0,0-1.465,1.261c-1.209,1.866,1.751,4.008,1.506,6.218-.2,1.809-2.518,2.653-4.274,2.174s-3.127-1.793-4.691-2.757-3.607-1.564-5.124-.563c-.407,4.9-.844,9.9-2.966,14.37-.777,1.631-1.772,3.159-2.4,4.853a23.915,23.915,0,0,0-1.105,5.7l-1.892,17.3C459.767,404.4,451.672,401.7,444.2,396.334Z" transform="translate(-223.817 -222.091)" fill="#efb7b9"/>
    <path id="Path_739" data-name="Path 739" d="M441.809,480.53l-1.663-11.253a18.289,18.289,0,0,1-.266-2.773c0-2.606,1.147-5.092,2.257-7.464,9.2,4.295,19.145,5.822,29.293,5.827,1.34,0,2.867-.125,3.7-1.173,1.725,1.986,1.777,5.181,1.042,7.7s-2.147,4.8-3.086,7.256a10.344,10.344,0,0,1-1.767,3.565c-1.407,1.517-3.69,1.777-5.765,1.767a36.855,36.855,0,0,1-6.5-.62C453.495,482.334,447.365,479.535,441.809,480.53Z" transform="translate(-223.632 -290.781)" fill="#fff"/>
    <path id="Path_740" data-name="Path 740" d="M462.842,494.416q-10.711-1.22-21.282-3.44c-3.456-.725-6.943-1.532-10.466-1.392-2.293.094-4.759.552-6.776-.584a32.623,32.623,0,0,1-.266,20.3c-1.392,3.909-3.513,7.553-4.535,11.576-2.127,8.418.792,17.6-1.866,25.863a6.547,6.547,0,0,1-1.605,2.877c-.813.745-1.923,1.131-2.674,1.939-1.1,1.188-1.173,2.976-1.178,4.6l-.047,14.36c-.031,9.142.089,18.837,4.915,26.583a25.24,25.24,0,0,0,27.177,10.758,20.2,20.2,0,0,0,7.381-3.612c3.5-2.783,5.734-6.807,7.917-10.727,2.606-4.691,5.212-9.486,6.051-14.766a41.959,41.959,0,0,0-.167-11.311c-2.356-20.849-7.469-41.521-6.369-62.448a18.926,18.926,0,0,1,3.789-10.57Z" transform="translate(-210.353 -305.125)" fill="#6c63ff"/>
    <path id="Path_741" data-name="Path 741" d="M508.764,663.259a63.172,63.172,0,0,1-10.878,0c-2.606-.313-5.15-.954-7.735-1.392a49.574,49.574,0,0,0-39.921,11.092c-2,1.71-4.024,4.331-2.919,6.724,1.188,2.575,4.821,2.5,7.62,2.022a22.933,22.933,0,0,0-7.818,6.114,4.615,4.615,0,0,0-1.371,3.32c.318,2.58,3.821,3.049,6.411,2.825-.844.907-.276,2.512.8,3.127a5.348,5.348,0,0,0,3.623.266,26.853,26.853,0,0,0,7.693-2.663,2.932,2.932,0,0,0,1.564,3.409,6.441,6.441,0,0,0,4.019.37c6.369-1.042,11.686-5.473,17.9-7.214,9.935-2.778,20.328,1.652,30.654,1.965a21.388,21.388,0,0,0,9.492-1.564c3.612-1.642,6.526-4.722,10.341-5.817,4.238-1.209,9.1.182,12.979-1.908,2.82-1.517.276-13.208-.443-15.46-1.319-4.118-2.643-6.849-7.037-7.266C532.615,660.121,519.965,662.612,508.764,663.259Z" transform="translate(-226.429 -387.444)" fill="#efb7b9"/>
    <path id="Path_742" data-name="Path 742" d="M619.88,657.484s16.831,14.245,7.12,29.788l18.764-6.479v-13.6c0-.646-7.125-10.357-7.125-10.357l-8.418-1.3Z" transform="translate(-309.811 -384.859)" fill="#fff"/>
    <path id="Path_743" data-name="Path 743" d="M244.821,521.32h6.312a13.031,13.031,0,0,1,13.031,13.031v19.343H231.79V534.351A13.031,13.031,0,0,1,244.821,521.32Z" transform="translate(-110.974 -249.576)" fill="#3f3d56"/>
    <path id="Path_744" data-name="Path 744" d="M244.821,521.32h6.312a13.031,13.031,0,0,1,13.031,13.031v19.343H231.79V534.351A13.031,13.031,0,0,1,244.821,521.32Z" transform="translate(-110.974 -249.576)" opacity="0.1"/>
    <circle id="Ellipse_447" data-name="Ellipse 447" cx="2.591" cy="2.591" r="2.591" transform="translate(133.117 273.683)" fill="#3f3d56"/>
    <circle id="Ellipse_448" data-name="Ellipse 448" cx="2.591" cy="2.591" r="2.591" transform="translate(133.117 270.446)" fill="#3f3d56"/>
    <circle id="Ellipse_449" data-name="Ellipse 449" cx="2.591" cy="2.591" r="2.591" transform="translate(133.117 267.209)" fill="#3f3d56"/>
    <circle id="Ellipse_450" data-name="Ellipse 450" cx="2.591" cy="2.591" r="2.591" transform="translate(133.117 263.973)" fill="#3f3d56"/>
    <circle id="Ellipse_451" data-name="Ellipse 451" cx="2.591" cy="2.591" r="2.591" transform="translate(133.117 260.736)" fill="#3f3d56"/>
    <circle id="Ellipse_452" data-name="Ellipse 452" cx="2.591" cy="2.591" r="2.591" transform="translate(133.117 257.499)" fill="#3f3d56"/>
    <circle id="Ellipse_453" data-name="Ellipse 453" cx="2.591" cy="2.591" r="2.591" transform="translate(133.117 254.257)" fill="#3f3d56"/>
    <circle id="Ellipse_454" data-name="Ellipse 454" cx="2.591" cy="2.591" r="2.591" transform="translate(137.005 255.555)" fill="#3f3d56"/>
    <circle id="Ellipse_455" data-name="Ellipse 455" cx="2.591" cy="2.591" r="2.591" transform="translate(139.596 254.257)" fill="#3f3d56"/>
    <circle id="Ellipse_456" data-name="Ellipse 456" cx="2.591" cy="2.591" r="2.591" transform="translate(142.186 252.964)" fill="#3f3d56"/>
    <circle id="Ellipse_457" data-name="Ellipse 457" cx="2.591" cy="2.591" r="2.591" transform="translate(133.117 251.02)" fill="#3f3d56"/>
    <circle id="Ellipse_458" data-name="Ellipse 458" cx="2.591" cy="2.591" r="2.591" transform="translate(133.117 247.783)" fill="#3f3d56"/>
    <circle id="Ellipse_459" data-name="Ellipse 459" cx="2.591" cy="2.591" r="2.591" transform="translate(133.117 244.546)" fill="#3f3d56"/>
    <circle id="Ellipse_460" data-name="Ellipse 460" cx="2.591" cy="2.591" r="2.591" transform="translate(133.117 241.31)" fill="#3f3d56"/>
    <path id="Path_745" data-name="Path 745" d="M286.01,579.739q-.969.141-1.939.2a14.883,14.883,0,0,0,1.668-1.71,10.946,10.946,0,0,0-1.564-3.039,5.326,5.326,0,0,1-2.085.657c-.641.094-1.287.162-1.934.208a32.3,32.3,0,0,0,2.476-2.606,11,11,0,1,0,3.612,8.136,10.774,10.774,0,0,0-.167-1.892Z" transform="translate(-139.545 -344.194)" fill="#6c63ff"/>
    <path id="Path_746" data-name="Path 746" d="M313.095,611.654a5.025,5.025,0,0,1-2.179.725c-.641.094-1.287.167-1.934.208A18.974,18.974,0,0,0,310.9,610.6a6.484,6.484,0,1,0,2.194,1.043Z" transform="translate(-157.993 -363.24)" fill="#6c63ff"/>
    <circle id="Ellipse_461" data-name="Ellipse 461" cx="2.591" cy="2.591" r="2.591" transform="translate(129.234 255.555)" fill="#3f3d56"/>
    <circle id="Ellipse_462" data-name="Ellipse 462" cx="2.591" cy="2.591" r="2.591" transform="translate(126.643 254.257)" fill="#3f3d56"/>
    <circle id="Ellipse_463" data-name="Ellipse 463" cx="2.591" cy="2.591" r="2.591" transform="translate(124.053 252.964)" fill="#3f3d56"/>
    <path id="Path_747" data-name="Path 747" d="M245.722,611.654a5.024,5.024,0,0,0,2.179.724c.641.094,1.287.167,1.934.209a18.458,18.458,0,0,1-1.918-1.991,6.484,6.484,0,1,1-2.194,1.043Z" transform="translate(-129.404 -363.24)" fill="#6c63ff"/>
    <path id="Path_748" data-name="Path 748" d="M244.806,525h6.312a13.031,13.031,0,0,1,13.031,13.031v17.133a2.21,2.21,0,0,1-2.21,2.21H233.97a2.21,2.21,0,0,1-2.21-2.21V538.031A13.031,13.031,0,0,1,244.806,525Z" transform="translate(-110.96 -251.338)" fill="#3f3d56"/>
    <g id="Group_51" data-name="Group 51" transform="translate(124.855 226.556)" opacity="0.1">
      <path id="Path_749" data-name="Path 749" d="M305.574,589.49a9.823,9.823,0,0,1-.834.792,8.479,8.479,0,0,0,.886-.078C305.616,589.964,305.6,589.725,305.574,589.49Z" transform="translate(-283.786 -579.792)"/>
      <path id="Path_750" data-name="Path 750" d="M297.28,581.568c.652-.042,1.293-.109,1.939-.2a6.252,6.252,0,0,0,1.684-.459,11.422,11.422,0,0,0-.907-1.5,3.92,3.92,0,0,1-1.042.443,15.008,15.008,0,0,1-1.673,1.715Z" transform="translate(-280.215 -574.966)"/>
      <path id="Path_751" data-name="Path 751" d="M265.681,583.048a10.988,10.988,0,0,1,16.94-9.257l.167-.177a11,11,0,1,0-14.5,16.539,10.945,10.945,0,0,1-2.606-7.1Z" transform="translate(-264.54 -570.885)"/>
    </g>
    <g id="Group_52" data-name="Group 52" transform="translate(144.777 247.137)" opacity="0.1">
      <path id="Path_752" data-name="Path 752" d="M314.68,615.031c.646-.042,1.293-.109,1.934-.2a5.031,5.031,0,0,0,2.179-.73,6.479,6.479,0,0,1,2.606,4.587,5.935,5.935,0,0,0,.036-.683,6.453,6.453,0,0,0-2.606-5.212,5.024,5.024,0,0,1-2.179.724l-.521.068A13.226,13.226,0,0,1,314.68,615.031Z" transform="translate(-308.467 -611.529)"/>
      <path id="Path_753" data-name="Path 753" d="M309.234,611.663a5.324,5.324,0,0,1,.646.047c.339-.36.672-.745,1.011-1.121a6.463,6.463,0,0,0-8.131,6.255,4.433,4.433,0,0,0,.031.646A6.474,6.474,0,0,1,309.234,611.663Z" transform="translate(-302.76 -610.37)"/>
    </g>
    <g id="Group_53" data-name="Group 53" transform="translate(113.675 247.137)" opacity="0.1">
      <path id="Path_754" data-name="Path 754" d="M249.845,615.031c-.646-.042-1.293-.109-1.934-.2a5.03,5.03,0,0,1-2.179-.73,6.479,6.479,0,0,0-2.606,4.587,5.934,5.934,0,0,1-.036-.683,6.453,6.453,0,0,1,2.606-5.212,5.025,5.025,0,0,0,2.179.724l.521.068A12.338,12.338,0,0,0,249.845,615.031Z" transform="translate(-243.09 -611.529)"/>
      <path id="Path_755" data-name="Path 755" d="M254.028,611.663a5.474,5.474,0,0,0-.652.047c-.334-.36-.667-.745-1.006-1.121a6.463,6.463,0,0,1,8.131,6.255,4.441,4.441,0,0,1-.031.646A6.474,6.474,0,0,0,254.028,611.663Z" transform="translate(-247.533 -610.37)"/>
    </g>
    <path id="Path_756" data-name="Path 756" d="M173.087,709.277H122.163A2.163,2.163,0,0,1,120,707.114v-24.1a2.163,2.163,0,0,1,3.091-1.955c14.631,6.943,30.393,9.325,49,.109a2.168,2.168,0,0,1,3.127,1.934v23.977A2.163,2.163,0,0,1,173.087,709.277Z" transform="translate(-70.483 -396.976)" fill="#6c63ff"/>
    <path id="Path_757" data-name="Path 757" d="M173.087,709.277H122.163A2.163,2.163,0,0,1,120,707.114v-24.1a2.163,2.163,0,0,1,3.091-1.955c14.631,6.943,30.393,9.325,49,.109a2.168,2.168,0,0,1,3.127,1.934v23.977A2.163,2.163,0,0,1,173.087,709.277Z" transform="translate(-70.483 -396.976)" opacity="0.1"/>
    <ellipse id="Ellipse_464" data-name="Ellipse 464" cx="3.013" cy="3.946" rx="3.013" ry="3.946" transform="translate(73.775 286.088)" fill="#3f3d56"/>
    <ellipse id="Ellipse_465" data-name="Ellipse 465" cx="3.013" cy="3.946" rx="3.013" ry="3.946" transform="translate(73.775 281.267)" fill="#3f3d56"/>
    <ellipse id="Ellipse_466" data-name="Ellipse 466" cx="3.013" cy="3.946" rx="3.013" ry="3.946" transform="translate(73.775 276.44)" fill="#3f3d56"/>
    <ellipse id="Ellipse_467" data-name="Ellipse 467" cx="3.013" cy="3.946" rx="3.013" ry="3.946" transform="translate(73.775 271.619)" fill="#3f3d56"/>
    <ellipse id="Ellipse_468" data-name="Ellipse 468" cx="3.013" cy="3.946" rx="3.013" ry="3.946" transform="translate(73.775 266.792)" fill="#3f3d56"/>
    <ellipse id="Ellipse_469" data-name="Ellipse 469" cx="3.013" cy="3.946" rx="3.013" ry="3.946" transform="translate(73.775 261.966)" fill="#3f3d56"/>
    <ellipse id="Ellipse_470" data-name="Ellipse 470" cx="3.013" cy="3.946" rx="3.013" ry="3.946" transform="translate(73.775 257.145)" fill="#3f3d56"/>
    <path id="Path_758" data-name="Path 758" d="M170.306,552.28a15.342,15.342,0,0,0,1.121-1.652l-7.923-1.3,8.569.063a14.443,14.443,0,0,0,.276-11.467l-11.493,5.963,10.6-7.818A14.443,14.443,0,1,0,147.6,552.222a14.124,14.124,0,0,0-1.647,2.632l10.279,5.4-10.946-3.7a14.459,14.459,0,0,0,2.33,13.552,14.443,14.443,0,1,0,22.7,0,14.443,14.443,0,0,0,0-17.857Z" transform="translate(-82.219 -324.204)" fill="#6c63ff"/>
    <path id="Path_759" data-name="Path 759" d="M144.49,590.735a14.381,14.381,0,0,0,3.091,8.929,14.443,14.443,0,1,0,22.7,0C172.219,597.208,144.49,589.114,144.49,590.735Z" transform="translate(-82.208 -353.73)" opacity="0.1"/>
    <path id="Path_760" data-name="Path 760" d="M173.087,710.554H122.163A2.163,2.163,0,0,1,120,708.391V683.013a2.163,2.163,0,0,1,3.091-1.955c14.631,6.943,26.233,15.037,49,.109a2.121,2.121,0,0,1,3.127,1.934v25.28A2.163,2.163,0,0,1,173.087,710.554Z" transform="translate(-70.483 -396.976)" fill="#6c63ff"/>
    <path id="Path_761" data-name="Path 761" d="M815.629,563.656,740.5,573.6l-3.758.5L700.01,554.472V549.88L814.8,537.36Z" transform="translate(-335.144 -257.255)" fill="#9c9ca1"/>
    <path id="Path_762" data-name="Path 762" d="M740.85,565.376l81.39-9.6-.834,15.027-63.4,4.649Z" transform="translate(-354.697 -266.074)" fill="#939498"/>
    <path id="Path_763" data-name="Path 763" d="M765.494,716.42v4.931l-3.758.521L725,702.232V697.64L760.063,716.4S764.66,716.837,765.494,716.42Z" transform="translate(-360.14 -405.015)" opacity="0.4"/>
    <path id="Path_764" data-name="Path 764" d="M814.762,574.993,797.9,653.2a4.993,4.993,0,0,0,5.535,6.01l106.711-14.125a4.993,4.993,0,0,0,4.086-3.378l23.023-69.428a5,5,0,0,0-4.983-6.567l-112.857,5.358A5,5,0,0,0,814.762,574.993Z" transform="translate(-394.985 -341.851)" fill="#3f3d56"/>
    <ellipse id="Ellipse_471" data-name="Ellipse 471" cx="4.535" cy="2.914" rx="4.535" ry="2.914" transform="translate(472.144 265.897) rotate(-84)" fill="#fff"/>
  </g>
</svg>
